<svg width="397" height="411" viewBox="0 0 397 411" fill="none" xmlns="http://www.w3.org/2000/svg">
<g clip-path="url(#clip0_313_714)">
<path d="M10.2941 275.135C15.9751 254.235 37.5832 241.852 58.4768 247.525C58.9106 247.643 59.3445 247.761 59.7784 247.879C63.6686 249.082 67.9056 247.657 70.2586 244.322L101.05 201.222C101.717 200.3 102.192 199.276 102.484 198.202C103.21 195.53 102.753 192.61 101.091 190.245C94.6087 181.078 92.5764 169.611 95.5131 158.807C100.927 138.888 121.519 127.088 141.43 132.495C161.342 137.901 173.153 158.498 167.739 178.416C162.325 198.335 141.733 210.134 121.798 204.722L121.045 204.517C117.188 203.372 113.019 204.816 110.662 208.076L79.871 251.175C79.2034 252.098 78.729 253.122 78.4371 254.195C77.6983 256.914 78.1945 259.869 79.9023 262.246C82.649 266.033 84.6861 270.266 85.9598 274.781C87.0503 278.707 90.535 281.493 94.6238 281.696L134.554 283.633C139.004 283.86 142.985 280.943 144.152 276.649C144.177 276.557 144.196 276.489 144.22 276.397C144.376 275.826 144.531 275.255 144.686 274.684C153.831 241.038 185.608 219.03 220.235 222.348C224.749 222.789 228.929 219.95 230.213 215.589C230.213 215.589 241.14 178.453 241.159 178.384C242.301 174.181 240.43 169.7 236.587 167.602C211.49 153.846 199.209 124.88 206.74 97.1724C215.693 64.2339 249.761 44.7121 282.688 53.652C315.615 62.592 335.117 96.6582 326.164 129.597C324.121 137.112 320.736 144.066 316.089 150.335C315.357 151.313 314.848 152.377 314.544 153.496C313.736 156.466 314.415 159.74 316.524 162.177L345.936 196.138C348.566 199.182 352.844 200.221 356.583 198.734C364.118 195.727 372.515 195.235 380.233 197.331C400.145 202.737 411.933 223.328 406.519 243.246C401.105 263.165 380.513 274.964 360.601 269.558C340.69 264.152 328.902 243.561 334.316 223.643C335.16 220.536 336.41 217.564 337.993 214.805C338.41 214.085 338.718 213.31 338.929 212.533C339.743 209.541 339.035 206.283 336.949 203.852L307.554 169.921C304.637 166.578 299.805 165.683 295.898 167.786C285.555 173.367 273.878 175.911 262.149 175.131C257.718 174.835 253.671 177.636 252.435 181.912C252.435 181.912 241.508 219.048 241.495 219.094C240.328 223.388 242.324 227.953 246.306 229.991C276.43 245.454 291.254 279.232 282.326 312.079C272.007 350.043 232.734 372.566 194.784 362.262C167.222 354.779 146.851 331.76 142.859 303.597C142.216 299.106 138.486 295.689 133.962 295.467L94.0995 293.547C90.0336 293.351 86.281 295.791 84.8083 299.585C77.5401 318.387 57.3602 328.581 37.9052 323.299C17.0117 317.627 4.64214 296.019 10.3231 275.119L10.2941 275.135Z" fill="#F5F5F5"/>
</g>
<defs>
<clipPath id="clip0_313_714">
<rect width="446" height="411" fill="white"/>
</clipPath>
</defs>
</svg>
