<svg width="442" height="563" viewBox="0 0 442 563" fill="none" xmlns="http://www.w3.org/2000/svg">
<g clip-path="url(#clip0_313_716)">
<path d="M-26.9517 424.355C-42.102 402.595 -36.7374 372.599 -14.9894 357.467C-13.6612 356.543 -12.2563 355.661 -10.8118 354.87C-7.63941 353.114 -6.09233 349.399 -7.09422 345.913L-12.7896 325.894C-13.029 325.038 -13.4075 324.256 -13.8868 323.567C-15.2692 321.582 -17.508 320.311 -20.0147 320.225C-30.5991 319.865 -40.1467 314.647 -46.2113 305.937C-56.7351 290.822 -53.0066 269.974 -37.8999 259.463C-22.7931 248.953 -1.9251 252.687 8.59871 267.802C9.12268 268.555 9.64806 269.378 10.1143 270.218C10.2321 270.421 10.3499 270.625 10.4836 270.817C12.2673 273.379 15.4041 274.643 18.5069 273.981L35.1253 270.452C38.6644 269.701 41.2359 266.605 41.308 262.99C41.6 247.646 49.3019 233.256 61.8802 224.504C77.9471 213.326 98.9586 212.968 115.412 223.6C118.466 225.564 122.456 225.188 125.067 222.659L147.312 201.145C149.566 198.958 150.299 195.644 149.168 192.723C145.084 182.183 148.752 170.29 158.066 163.81C169.06 156.16 184.322 158.804 192.093 169.726C193.909 172.266 197.066 173.491 200.131 172.809L236.96 164.702C240.504 163.924 243.053 160.795 243.087 157.159C243.125 151.856 244.111 146.654 246.006 141.699C246.951 139.235 246.566 136.532 245.117 134.451C244.704 133.858 244.212 133.322 243.623 132.852L216.65 110.999C213.91 108.77 210.018 108.673 207.155 110.736C189.487 123.028 165.269 118.678 153.039 101.113C140.81 83.5479 145.14 59.3339 162.696 47.1197C180.251 34.9055 204.469 39.2563 216.699 56.8212C224.402 67.8853 225.836 81.8856 220.527 94.2545C219.448 96.7643 219.793 99.6141 221.298 101.776C221.71 102.368 222.203 102.905 222.791 103.375L248.505 124.203C251.431 126.564 255.602 126.514 258.458 124.099C259.532 123.186 260.651 122.336 261.787 121.545C281.55 107.795 308.837 112.697 322.605 132.471C336.373 152.246 331.494 179.527 311.73 193.278C291.967 207.028 264.68 202.127 250.912 182.352C249.931 180.943 249.041 179.494 248.242 178.006C248.096 177.728 247.945 177.476 247.766 177.22C245.983 174.658 242.808 173.373 239.673 174.057L202.23 182.306C199.181 182.977 196.813 185.41 196.248 188.488C195.053 194.858 191.466 200.419 186.153 204.116C179.336 208.859 170.298 209.799 162.571 206.548C159.69 205.344 156.37 205.966 154.12 208.126L131.843 229.662C129.233 232.191 128.703 236.172 130.584 239.284C143.54 260.86 137.505 289.041 116.845 303.415C95.0972 318.546 65.0953 313.156 49.945 291.396C48.3843 289.155 47.0156 286.78 45.8452 284.314C45.6529 283.901 45.4396 283.527 45.1832 283.158C43.4106 280.612 40.2627 279.332 37.16 279.994L20.5304 283.507C17.2119 284.199 14.7259 286.975 14.3891 290.346C13.423 299.979 8.27756 308.693 0.276092 314.26L-0.203976 314.594C-3.03308 316.467 -4.33041 319.961 -3.38714 323.226L2.3083 343.246C2.54762 344.101 2.9261 344.884 3.40547 345.572C4.91047 347.734 7.4368 349.042 10.1773 348.918C26.5817 348.153 42.5735 356.041 51.9379 369.49C53.2534 371.38 54.4471 373.401 55.4794 375.464C55.6432 375.802 55.8501 376.133 56.062 376.437C57.868 379.031 61.1245 380.331 64.2738 379.566L85.761 374.432C88.9375 373.672 91.3067 371.001 91.7055 367.753C92.6572 359.532 96.9523 352.361 103.802 347.595C116.828 338.532 134.802 341.761 143.876 354.795C151.457 365.683 150.646 380.246 141.874 390.2C139.712 392.655 139.319 396.185 140.876 399.071L158.915 432.416C159.05 432.679 159.201 432.93 159.368 433.17C161.007 435.524 163.83 436.816 166.723 436.467C169.902 436.085 172.528 433.783 173.335 430.678L200.971 323.319C201.557 321.057 201.088 318.745 199.817 316.919C199.182 316.007 198.343 315.212 197.341 314.625C192.441 311.784 188.305 307.959 185.049 303.283C172.82 285.719 177.151 261.505 194.706 249.29C212.261 237.076 236.48 241.427 248.709 258.992C250.816 262.018 252.458 265.297 253.616 268.769C253.853 269.484 254.196 270.148 254.62 270.757C256.125 272.918 258.678 274.231 261.408 274.091L300.458 272.211C304.133 272.031 307.167 269.325 307.775 265.694C310.052 251.94 317.642 239.981 329.148 231.976C352.464 215.753 384.654 221.522 400.897 244.851C417.14 268.18 411.387 300.348 388.054 316.582C364.722 332.815 332.564 327.024 316.321 303.695C312.899 298.779 310.387 293.397 308.853 287.714C308.618 286.831 308.234 286.006 307.732 285.285C306.227 283.124 303.701 281.815 300.944 281.95L261.921 283.836C258.429 284.007 255.466 286.473 254.703 289.88C252.563 299.26 247.006 307.451 239.085 312.963C232.828 317.316 225.497 319.683 217.856 319.866C214.368 319.94 211.349 322.325 210.477 325.713L182.216 435.552C181.634 437.787 182.098 440.126 183.369 441.951C183.815 442.591 184.368 443.181 185.022 443.677C187.045 445.217 188.792 447.044 190.23 449.109C197.978 460.237 195.235 475.575 184.113 483.313C172.991 491.051 157.65 488.295 149.902 477.167C143.615 468.137 143.985 456.351 150.801 447.854C152.78 445.407 153.079 442.015 151.583 439.253L132.353 403.717C132.218 403.455 132.066 403.204 131.899 402.963C130.227 400.562 127.344 399.287 124.415 399.686C113.722 401.183 102.854 396.457 96.7222 387.65C96.7222 387.65 96.3431 387.106 96.3097 387.058C94.4814 384.432 91.2152 383.187 88.0978 383.93L66.6266 389.052C63.1 389.889 60.6115 393.071 60.6368 396.69C60.7544 412.485 53.0563 427.324 40.0459 436.376C18.2979 451.508 -11.704 446.118 -26.8542 424.358L-26.9517 424.355Z" fill="#F5F5F5"/>
</g>
<defs>
<clipPath id="clip0_313_716">
<rect width="584" height="563" fill="white" transform="translate(-142)"/>
</clipPath>
</defs>
</svg>
