<svg id="_0493_conference_presentation" xmlns="http://www.w3.org/2000/svg" viewBox="0 0 500 500" data-imageid="conference-1-82" imageName="Conference 1" class="illustrations_image" style="width: 150px;"><defs><style>.cls-1_conference-1-82,.cls-2_conference-1-82{fill:#fff;}.cls-3_conference-1-82{fill:#f4a28c;}.cls-4_conference-1-82,.cls-5_conference-1-82,.cls-6_conference-1-82{fill:#a5a5a5;}.cls-7_conference-1-82{fill:#e6e6e6;}.cls-8_conference-1-82{fill:#ce8172;opacity:.31;}.cls-2_conference-1-82{opacity:.46;}.cls-9_conference-1-82{fill:#24285b;}.cls-10_conference-1-82{fill:#000001;opacity:.08;}.cls-5_conference-1-82{opacity:.43;}.cls-6_conference-1-82{opacity:.45;}.cls-11_conference-1-82{fill:#ffd200;}.cls-12_conference-1-82{fill:#68e1fd;}</style></defs><g id="screen_conference-1-82"><rect class="cls-7_conference-1-82" x="27.66" y="58.41" width="444.68" height="348.91"/><rect class="cls-2_conference-1-82" x="43.68" y="230.44" width="76.9" height="9.67"/><rect class="cls-2_conference-1-82" x="43.68" y="246.21" width="108.57" height="4.84"/><rect class="cls-2_conference-1-82" x="43.68" y="257.15" width="79.35" height="4.84"/><rect class="cls-2_conference-1-82" x="194.76" y="230.44" width="58.11" height="9.67"/><rect class="cls-2_conference-1-82" x="194.76" y="246.21" width="103.79" height="4.84"/><rect class="cls-2_conference-1-82" x="194.76" y="257.15" width="75.86" height="4.84"/><rect class="cls-2_conference-1-82" x="43.68" y="165.72" width="76.9" height="9.67"/><rect class="cls-2_conference-1-82" x="43.68" y="181.5" width="108.57" height="4.84"/><rect class="cls-2_conference-1-82" x="43.68" y="192.43" width="79.35" height="4.84"/><rect class="cls-2_conference-1-82" x="194.76" y="165.72" width="58.11" height="9.67"/><rect class="cls-2_conference-1-82" x="194.76" y="181.5" width="103.79" height="4.84"/><rect class="cls-2_conference-1-82" x="194.76" y="192.43" width="75.86" height="4.84"/><rect class="cls-4_conference-1-82" x="27.66" y="407.33" width="444.68" height="34.26"/><circle class="cls-6_conference-1-82" cx="199.09" cy="312.25" r="16.17"/><rect class="cls-6_conference-1-82" x="235.08" y="298.51" width="45.55" height="63.28"/><rect class="cls-4_conference-1-82" x="185.7" y="340.59" width="31.29" height="21.21"/><circle class="cls-5_conference-1-82" cx="71.03" cy="332.11" r="21.52"/><rect class="cls-5_conference-1-82" x="68.44" y="299.15" width="37.41" height="37.41"/><rect class="cls-5_conference-1-82" x="118.05" y="299.15" width="27.89" height="61.99"/><rect class="cls-2_conference-1-82" x="368.58" y="170.56" width="76.6" height="90.89"/><circle class="cls-1_conference-1-82" cx="50.53" cy="77.82" r="6.85"/><circle class="cls-11_conference-1-82" cx="69.94" cy="77.82" r="6.85"/><circle class="cls-9_conference-1-82" cx="87.81" cy="77.82" r="6.85"/><rect class="cls-2_conference-1-82" x="43.68" y="105.75" width="401.49" height="38.11"/></g><g id="mic_conference-1-82"><rect class="cls-9_conference-1-82" x="396.38" y="317.86" width="54.27" height="89.46"/><rect class="cls-9_conference-1-82" x="391.81" y="311.62" width="62.85" height="6.25"/><path class="cls-9_conference-1-82" d="m419.26,296.81c-.78-.78-2.05-.78-2.84,0l-2.46,2.46c-.61.61-.74,1.52-.39,2.26-1.34,1.55-2.08,3.5-2.08,5.57v4.52h1.1v-4.52c0-1.75.6-3.4,1.7-4.74.78.51,1.83.42,2.51-.26l2.46-2.46c.78-.78.78-2.05,0-2.84Z"/><path class="cls-9_conference-1-82" d="m427.1,296.81c-.78-.78-2.05-.78-2.84,0l-2.46,2.46c-.61.61-.74,1.52-.39,2.26-1.34,1.55-2.08,3.5-2.08,5.57v4.52h1.1v-4.52c0-1.75.6-3.4,1.7-4.74.78.51,1.83.42,2.51-.26l2.46-2.46c.78-.78.78-2.05,0-2.84Z"/><path class="cls-9_conference-1-82" d="m434.95,296.81c-.78-.78-2.05-.78-2.84,0l-2.46,2.46c-.61.61-.74,1.52-.39,2.26-1.34,1.55-2.08,3.5-2.08,5.57v4.52h1.1v-4.52c0-1.75.6-3.4,1.7-4.74.78.51,1.83.42,2.51-.26l2.46-2.46c.78-.78.78-2.05,0-2.84Z"/></g><g id="person_conference-1-82"><path class="cls-12_conference-1-82 targetColor" d="m387.3,398.36s1.5,4.57,5.28,4.92c3.78.35,4.77,4.38,1.37,5.43s-12.16-3.72-12.16-3.72l.25-5.95,5.26-.68Z" style="fill: rgb(30, 99, 109);"/><path class="cls-12_conference-1-82 targetColor" d="m335.4,398.36s-1.5,4.57-5.28,4.92-4.77,4.38-1.37,5.43c3.4,1.05,12.16-3.72,12.16-3.72l-.25-5.95-5.26-.68Z" style="fill: rgb(30, 99, 109);"/><path class="cls-9_conference-1-82" d="m373.38,310.55l14.74,88.64h-7.37s-18.47-48.12-18.47-48.12c-6.54-17.04-18.07-31.23-32.79-40.35l-5.42-3.36,49.31,3.19Z"/><path class="cls-9_conference-1-82" d="m324.06,307.36l7.61,91.82h9.79s-2.29-69.09,15.38-83.8l-32.78-8.02Z"/><path class="cls-12_conference-1-82 targetColor" d="m321.69,230.51s-37.9,41.05-64.22,53.57l5,12.61s63.8-21.94,75.83-38.99c12.03-17.06-16.61-27.2-16.61-27.2Z" style="fill: rgb(30, 99, 109);"/><path class="cls-2_conference-1-82" d="m321.69,230.51s-37.9,41.05-64.22,53.57l5,12.61s63.8-21.94,75.83-38.99c12.03-17.06-16.61-27.2-16.61-27.2Z"/><path class="cls-3_conference-1-82" d="m356.19,193.54s-1.42,6.84-.8,11.58c.25,1.92,2.04,3.29,3.96,3.02,2.38-.35,5.5-1.5,6.7-5.08l2.79-5.81s1.62-3.7-1.96-6.98c-3.58-3.28-10.04-.93-10.69,3.28Z"/><polygon class="cls-3_conference-1-82" points="368.34 198.29 369.25 221.17 356.61 220.77 361.02 204.28 368.34 198.29"/><path class="cls-9_conference-1-82" d="m357.88,194.03c1.2.21,3.43.46,6.45.27,0,0-2.53,2.76-.75,6.35,1.77,3.58,5.47,2.55,5.47,2.55l.94-8.93c.36-2.59-.72-5.18-2.83-6.73-.86-.63-1.83-1.27-2.8-1.81-2.44-1.33-6.4-.07-8.5-2.07-.92-.88-2.45-.45-2.78.78-.72,2.66-.74,6.99,2.75,8.9.64.35,1.34.55,2.06.68Z"/><path class="cls-3_conference-1-82" d="m362.86,200.35s.37-2.66,2.35-2.22c1.98.44,1.47,4.3-1.3,4.33l-1.05-2.11Z"/><path class="cls-3_conference-1-82" d="m355.52,197.89l-2.25,2.44c-.56.6-.29,1.58.49,1.83l2.59.81-.83-5.08Z"/><path class="cls-8_conference-1-82" d="m359.9,207.85s2.37-.2,4.35-1.94c0,0-.67,4.14-5.73,7.7l1.38-5.76Z"/><path class="cls-12_conference-1-82 targetColor" d="m324.07,308.21l21.26,1.57,28.05,2.08h.01c.6-.89,24.56-35.44,24.08-61.85-.26-13.94-7.33-25.59-28.22-28.84l-8.6-.27c-2.1-.07-4.2-.24-6.27-.56-6.64-1-26.57-2.23-37.4,16.62-13.14,22.85,7.08,71.24,7.08,71.24Z" style="fill: rgb(30, 99, 109);"/><path class="cls-10_conference-1-82" d="m344.86,310.02l28.52,1.84h.01c.6-.89,24.56-35.44,24.08-61.85-16.09-7.5-42.23-10.02-42.23-10.02,0,0-5.33,5.48,1,13.05,7.78,9.31,10.52,22.03,5.88,33.24-3,7.23-7.28,18.69-16.79,23.49-.16.09-.31.17-.47.24Z"/><path class="cls-12_conference-1-82 targetColor" d="m357.47,230.88c5.11-6.91,14.33-9.44,22.42-6.57,14.86,5.27,40.33,17.87,43.06,42.82,3.89,35.47-52.79,43.24-52.79,43.24l-1.83-9.03s58.71-32.83,1.83-49.36c0,0-22.75-7.52-12.69-21.11Z" style="fill: rgb(30, 99, 109);"/><path class="cls-2_conference-1-82" d="m357.47,230.88c5.11-6.91,14.33-9.44,22.42-6.57,14.86,5.27,40.33,17.87,43.06,42.82,3.89,35.47-52.79,43.24-52.79,43.24l-1.83-9.03s58.71-32.83,1.83-49.36c0,0-22.75-7.52-12.69-21.11Z"/><path class="cls-3_conference-1-82" d="m368.25,302.66s-9.71.18-8,6.25,9.92,1.46,9.92,1.46l-1.91-7.71Z"/><path class="cls-3_conference-1-82" d="m258.28,286.13c-.09-.23-9.52-1.27-10.12-.62-1.34,1.43,2.1,2.01,2.1,2.01,0,0-5.11-.04-5.84.93-.73.97.31,3.47,4.8,5.05,4.5,1.58,12.14.4,12.14.4l-3.07-7.76Z"/><path class="cls-11_conference-1-82" d="m351.88,221.37c.03.58.4,1.18.87,1.47.65.4,1.41.58,2.17.63,1.04.06,3.1-.38,2.94-1.85-.15-1.35-2.84-1.53-3.84-1.59-.53-.03-1.09-.04-1.55.22s-.63.68-.61,1.12Z"/><path class="cls-11_conference-1-82" d="m353.1,222.28s-13.06,19.89-17.44,31.25l4.9,10.07,7.72-8.37s5.63-28.95,6.6-32.51l-1.78-.45Z"/></g></svg>