<svg id="_86_data_analysis_outline" xmlns="http://www.w3.org/2000/svg" viewBox="0 0 500 500" data-imageid="data-analysis-45-46198" imageName="Data Analysis" class="illustrations_image" style="width: 150px;"><defs><style>.cls-1_data-analysis-45-46198{fill:#fff;}.cls-2_data-analysis-45-46198{fill:#f4a28c;}.cls-3_data-analysis-45-46198{opacity:.46;}.cls-3_data-analysis-45-46198,.cls-4_data-analysis-45-46198,.cls-5_data-analysis-45-46198,.cls-6_data-analysis-45-46198,.cls-7_data-analysis-45-46198,.cls-8_data-analysis-45-46198,.cls-9_data-analysis-45-46198,.cls-10_data-analysis-45-46198{fill:none;}.cls-11_data-analysis-45-46198{fill:#a5a5a5;}.cls-4_data-analysis-45-46198{opacity:.58;}.cls-5_data-analysis-45-46198{opacity:.41;}.cls-12_data-analysis-45-46198{fill:#ce8172;}.cls-13_data-analysis-45-46198{fill:#e6e6e6;}.cls-6_data-analysis-45-46198{opacity:.03;}.cls-7_data-analysis-45-46198{opacity:.22;}.cls-8_data-analysis-45-46198{opacity:.73;}.cls-9_data-analysis-45-46198{opacity:.08;}.cls-10_data-analysis-45-46198{opacity:.31;}.cls-14_data-analysis-45-46198{fill:#24285b;}.cls-15_data-analysis-45-46198{fill:#000001;}.cls-16_data-analysis-45-46198{fill:#ffd200;}.cls-17_data-analysis-45-46198{fill:#68e1fd;}</style></defs><g id="screen_data-analysis-45-46198"><rect class="cls-13_data-analysis-45-46198" x="29.14" y="63.23" width="365.37" height="302.11"/><g class="cls-9_data-analysis-45-46198"><path class="cls-15_data-analysis-45-46198" d="m207.79,238.41s-32.36,24.81-22.73,58.37c9.62,33.56,36.37,41.77,36.37,41.77v27.33l146.32-.53.56-58.49v-133.83s-16.83-4.72-18.93,5.77c-2.1,10.49-6.29,48-6.82,49.69-.52,1.69-35.67-20.33-47.2,4.32l3.79,19.2,3.03,7.55-.52,15.27-2.51,11.47-6.41,11.01-6.29,9.56-10.66,8.73-12.29,6.54-27.74-3.34-19.98-23.07-7.98-23.69v-33.63Z"/></g><circle class="cls-14_data-analysis-45-46198" cx="61.3" cy="90.1" r="6.92"/><circle class="cls-17_data-analysis-45-46198 targetColor" cx="81.89" cy="90.1" r="6.92" style="fill: rgb(30, 99, 109);"/><circle class="cls-16_data-analysis-45-46198" cx="101.29" cy="90.1" r="6.92"/><path class="cls-11_data-analysis-45-46198" d="m140.12,187.02c-.42,0-.83.04-1.23.11.29-.77.45-1.59.45-2.46,0-3.9-3.16-7.07-7.07-7.07-1.51,0-2.9.48-4.05,1.28-.71-4.72-4.77-8.34-9.69-8.34-5.42,0-9.81,4.39-9.81,9.81,0,1.6.39,3.11,1.07,4.45-.48-.08-.97-.13-1.47-.13-4.99,0-9.03,4.04-9.03,9.03s3.84,8.81,8.64,9.01v.02s32.18,0,32.18,0c4.34,0,7.85-3.51,7.85-7.85s-3.51-7.85-7.85-7.85Z"/><path class="cls-1_data-analysis-45-46198" d="m123.64,255.85c-36.16,0-65.58-29.42-65.58-65.58s29.42-65.58,65.58-65.58,65.58,29.42,65.58,65.58-29.42,65.58-65.58,65.58Zm0-113.49c-26.42,0-47.91,21.49-47.91,47.91s21.49,47.91,47.91,47.91,47.91-21.49,47.91-47.91-21.49-47.91-47.91-47.91Z"/><path class="cls-14_data-analysis-45-46198" d="m123.64,255.85c-16.05,0-31.5-5.86-43.5-16.51l11.72-13.21c8.76,7.77,20.05,12.05,31.78,12.05v17.66Z"/><path class="cls-17_data-analysis-45-46198 targetColor" d="m189.21,190.28h-17.66c0-26.42-21.49-47.91-47.91-47.91v-17.66c36.16,0,65.58,29.42,65.58,65.58Z" style="fill: rgb(30, 99, 109);"/><path class="cls-16_data-analysis-45-46198" d="m123.64,255.85v-17.66c26.42,0,47.91-21.49,47.91-47.91h17.66c0,36.16-29.42,65.58-65.58,65.58Z"/><g class="cls-9_data-analysis-45-46198"><rect class="cls-15_data-analysis-45-46198" x="101.89" y="280.37" width="61.12" height="17.12"/></g><rect class="cls-17_data-analysis-45-46198 targetColor" x="65.2" y="280.37" width="23.42" height="17.12" style="fill: rgb(30, 99, 109);"/><rect class="cls-14_data-analysis-45-46198" x="65.2" y="309.86" width="23.42" height="17.12"/><g class="cls-9_data-analysis-45-46198"><rect class="cls-15_data-analysis-45-46198" x="101.89" y="309.86" width="61.12" height="17.12"/></g><rect class="cls-1_data-analysis-45-46198" x="211.82" y="141.21" width="124.84" height="26.35"/><rect class="cls-14_data-analysis-45-46198" x="298.67" y="141.15" width="37.99" height="26.35"/></g><g id="sd_data-analysis-45-46198" class="cls-6_data-analysis-45-46198"><ellipse class="cls-15_data-analysis-45-46198" cx="339.03" cy="437.24" rx="131.84" ry="21.73"/></g><g id="plant_data-analysis-45-46198"><g class="cls-4_data-analysis-45-46198"><path class="cls-17_data-analysis-45-46198 targetColor" d="m423.32,420.91s-11.14-3.04-13.56-13.41c0,0,17.26-3.49,17.75,14.33l-4.19-.92Z" style="fill: rgb(30, 99, 109);"/></g><g class="cls-8_data-analysis-45-46198"><path class="cls-17_data-analysis-45-46198 targetColor" d="m424.69,419.8s-7.78-12.31-.93-23.81c0,0,13.12,8.34,7.29,23.84l-6.36-.03Z" style="fill: rgb(30, 99, 109);"/></g><path class="cls-17_data-analysis-45-46198 targetColor" d="m426.69,419.81s4.11-12.99,16.54-15.46c0,0,2.33,8.44-8.05,15.49l-8.49-.04Z" style="fill: rgb(30, 99, 109);"/><polygon class="cls-14_data-analysis-45-46198" points="418.61 419.52 420.87 434.97 435.1 435.03 437.19 419.6 418.61 419.52"/></g><g id="check_data-analysis-45-46198"><rect class="cls-14_data-analysis-45-46198" x="356.65" y="41.04" width="76.82" height="56.09"/><path class="cls-1_data-analysis-45-46198" d="m390.03,80s-.06,0-.1,0c-.66-.03-1.28-.35-1.68-.87l-7.62-9.8c-.76-.98-.59-2.4.4-3.16.98-.77,2.4-.58,3.16.4l5.98,7.7,14.77-15.95c.84-.92,2.27-.97,3.18-.12.91.84.97,2.27.12,3.18l-16.57,17.89c-.43.46-1.03.72-1.65.72Z"/></g><g id="person_data-analysis-45-46198"><path class="cls-17_data-analysis-45-46198 targetColor" d="m323.32,423.58s-1.61,5.39-6.36,6.05c-4.75.67-5.75,5.4-1.39,6.38,4.36.98,15.13-5.14,15.13-5.14l-.69-6.87-6.69-.42Z" style="fill: rgb(30, 99, 109);"/><path class="cls-17_data-analysis-45-46198 targetColor" d="m391.79,427.89s1.61,5.39,6.36,6.05c4.75.67,5.75,5.4,1.39,6.38-4.36.98-15.13-5.14-15.13-5.14l.69-6.87,6.69-.42Z" style="fill: rgb(30, 99, 109);"/><path class="cls-17_data-analysis-45-46198 targetColor" d="m241.89,358.59s40.51-18.29,47.27-59.19c6.76-40.9-5.48-73.09,41.54-84.26l5.6,48.08s-1.01,81.28-91.75,105.92l-2.66-10.55Z" style="fill: rgb(30, 99, 109);"/><g class="cls-3_data-analysis-45-46198"><path class="cls-1_data-analysis-45-46198" d="m241.89,358.59s40.51-18.29,47.27-59.19c6.76-40.9-5.48-73.09,41.54-84.26l5.6,48.08s-1.01,81.28-91.75,105.92l-2.66-10.55Z"/></g><path class="cls-2_data-analysis-45-46198" d="m356.02,180.51s-3.5,8.17-3.93,14.23c-.17,2.46,1.71,4.62,4.17,4.76,3.06.17,7.24-.48,9.65-4.63l4.95-6.54s2.96-4.21-.67-9.2c-3.63-4.99-12.28-3.7-14.17,1.38Z"/><polygon class="cls-2_data-analysis-45-46198" points="368.94 189.74 368.18 218.87 352.16 217.3 359.15 196.74 368.94 189.74"/><path class="cls-14_data-analysis-45-46198" d="m358,181.56c1.45.56,4.16,1.45,7.98,1.97,0,0-3.85,2.81-2.55,7.73,1.31,4.92,6.17,4.57,6.17,4.57l3.44-10.89c1.1-3.14.41-6.64-1.83-9.11-.92-1.01-1.95-2.05-3.04-2.96-2.71-2.28-7.97-1.71-10.08-4.74-.92-1.33-2.94-1.18-3.67.27-1.58,3.14-2.7,8.53,1.17,11.8.71.6,1.54,1.03,2.4,1.36Z"/><path class="cls-2_data-analysis-45-46198" d="m362.61,190.7s1.13-3.23,3.49-2.17c2.36,1.06.75,5.73-2.71,5.08l-.78-2.9Z"/><g class="cls-7_data-analysis-45-46198"><circle class="cls-1_data-analysis-45-46198" cx="249.34" cy="272.03" r="43.55"/></g><path class="cls-2_data-analysis-45-46198" d="m354.08,185.78l-3.42,2.48c-.85.61-.77,1.9.15,2.4l3.03,1.67.25-6.55Z"/><g class="cls-5_data-analysis-45-46198"><circle class="cls-1_data-analysis-45-46198" cx="257.23" cy="254.31" r="13.55"/></g><g class="cls-5_data-analysis-45-46198"><circle class="cls-1_data-analysis-45-46198" cx="267.46" cy="283.13" r="8.32"/></g><g class="cls-10_data-analysis-45-46198"><path class="cls-12_data-analysis-45-46198" d="m358.34,199.39s3,.45,5.95-1.12c0,0-.78,5.33-8.08,8.26l2.13-7.13Z"/></g><path class="cls-17_data-analysis-45-46198 targetColor" d="m335.78,214.66s67.6,2.77,87.12,17.64c19.52,14.87-44.38,113.29-44.38,113.29l-65.05-11.25s-41.84-117.1,22.3-119.68Z" style="fill: rgb(30, 99, 109);"/><g class="cls-9_data-analysis-45-46198"><path class="cls-15_data-analysis-45-46198" d="m393.36,242.03s-22.69,11.08-14.84,32.78c7.85,21.7-6,49.76-36.63,64.44l36.63,6.34s30.22-48.33,35.75-63.84-20.91-39.7-20.91-39.7Z"/></g><path class="cls-17_data-analysis-45-46198 targetColor" d="m392.11,244.39c6.72-14.62,26.04-18.24,38.15-7.65,16.91,14.79,39.85,41.48,40.6,77.86,1.18,57.81-83.77,31.77-83.77,31.77l3.54-12.89s56.63,6.29,46.41-25.56c-8.24-25.66-56.57-38.19-44.92-63.52Z" style="fill: rgb(30, 99, 109);"/><rect class="cls-16_data-analysis-45-46198" x="248.14" y="319.18" width="15.73" height="112.27" transform="translate(-23.59 17.22) rotate(-3.68)"/><g class="cls-9_data-analysis-45-46198"><rect class="cls-15_data-analysis-45-46198" x="248.14" y="319.18" width="15.73" height="112.27" transform="translate(-23.59 17.22) rotate(-3.68)"/></g><rect class="cls-14_data-analysis-45-46198" x="243.86" y="347.91" width="26.74" height="89.4" transform="translate(-24.69 17.34) rotate(-3.68)"/><g class="cls-3_data-analysis-45-46198"><path class="cls-1_data-analysis-45-46198" d="m392.11,244.39c6.72-14.62,26.04-18.24,38.15-7.65,16.91,14.79,39.85,41.48,40.6,77.86,1.18,57.81-83.77,31.77-83.77,31.77l3.54-12.89s56.63,6.29,46.41-25.56c-8.24-25.66-56.57-38.19-44.92-63.52Z"/></g><path class="cls-14_data-analysis-45-46198" d="m378.52,345.58l-65.05-11.25,7.09,90.12h11.54s-1.38-30.2,6.39-50.57c2.84-7.45,12.77-9.03,17.54-2.64,17.09,22.88,26.6,58.61,26.6,58.61l11.34-1.47-15.46-82.8Z"/><path class="cls-2_data-analysis-45-46198" d="m389.82,336.39s-13.77-2.65-14.81,9.41c-1.04,12.06,8.92,7.43,12.07.57l2.74-9.98Z"/><path class="cls-2_data-analysis-45-46198" d="m241.89,358.59s-12.85,11.11-.52,14.42c6.84,1.84.52-14.42.52-14.42Z"/><path class="cls-16_data-analysis-45-46198" d="m253.02,327.14c-31.53,2.03-58.84-21.97-60.87-53.5-2.03-31.53,21.97-58.83,53.5-60.86,31.53-2.03,58.84,21.97,60.87,53.5,2.03,31.53-21.97,58.84-53.5,60.87Zm-6.24-96.92c-21.91,1.41-38.59,20.39-37.18,42.3,1.41,21.91,20.39,38.59,42.3,37.18,21.91-1.41,38.59-20.39,37.18-42.3-1.41-21.91-20.39-38.59-42.3-37.18Z"/></g></svg>