<svg width="114" height="114" viewBox="0 0 114 114" fill="none" xmlns="http://www.w3.org/2000/svg">
<path d="M20.1356 78.7806V76.6909C20.1356 74.5182 20.4686 72.5695 21.1347 70.8446C21.8175 69.1032 22.6918 67.4944 23.7576 66.0183C24.8233 64.5256 25.9474 63.0661 27.1298 61.6398C28.2788 60.2467 29.3696 58.8203 30.4021 57.3608C31.4512 55.8847 32.3005 54.2926 32.9499 52.5843C33.6161 50.8594 33.9491 48.9273 33.9491 46.7878C33.9491 45.7595 33.7909 44.8805 33.4745 44.1507C33.1748 43.4044 32.5419 43.0312 31.5761 43.0312C30.1106 43.0312 29.3779 44.3332 29.3779 46.937V52.2858H20.1356C20.1189 51.9043 20.0939 51.4731 20.0606 50.9921C20.044 50.5111 20.0356 50.0468 20.0356 49.599C20.0356 46.4478 20.3687 43.7775 21.0348 41.5883C21.7009 39.3825 22.875 37.7074 24.5569 36.563C26.2555 35.402 28.6369 34.8215 31.701 34.8215C35.348 34.8215 38.1789 35.8415 40.1939 37.8815C42.2256 39.9215 43.2414 42.8322 43.2414 46.6136C43.2414 49.1843 42.9084 51.4399 42.2422 53.3804C41.5761 55.3043 40.6935 57.0623 39.5944 58.6545C38.4953 60.2301 37.288 61.8057 35.9724 63.3813C35.0399 64.4925 34.1323 65.6286 33.2497 66.7895C32.3837 67.9505 31.6177 69.1944 30.9516 70.5212H42.9417V78.7806H20.1356Z" fill="#1D646D"/>
<path d="M57.9532 79.1787C53.7567 79.1787 50.7758 78.1089 49.0106 75.9694C47.2621 73.8299 46.3878 70.687 46.3878 66.5407V55.0472C46.3878 51.9292 46.7209 49.3336 47.387 47.2604C48.0531 45.1873 49.2188 43.6366 50.8841 42.6083C52.5494 41.58 54.8641 41.0659 57.8283 41.0659C59.8933 41.0659 61.7417 41.4307 63.3737 42.1605C65.0224 42.8902 66.3213 43.96 67.2705 45.3697C68.2197 46.7795 68.6943 48.5043 68.6943 50.5443V56.2413H59.5769V51.017C59.5769 50.1546 59.452 49.4331 59.2022 48.8526C58.9524 48.2556 58.4112 47.957 57.5785 47.957C56.1131 47.957 55.3804 48.9936 55.3804 51.0667V69.1529C55.3804 69.9158 55.5469 70.6207 55.8799 71.2675C56.213 71.8978 56.7625 72.2129 57.5286 72.2129C58.3113 72.2129 58.8525 71.9061 59.1522 71.2924C59.4686 70.6622 59.6268 69.9324 59.6268 69.1032V62.834H68.6943V69.3519C68.6943 71.4085 68.228 73.1748 67.2955 74.6509C66.3796 76.1104 65.114 77.2299 63.4986 78.0094C61.8833 78.7889 60.0348 79.1787 57.9532 79.1787Z" fill="#1D646D"/>
<path d="M72.8399 78.7806V34.9957H82.0323V45.1707C82.5152 43.7775 83.2563 42.7493 84.2554 42.0859C85.2546 41.4059 86.4203 41.0659 87.7525 41.0659C90.3504 41.0659 92.2405 41.8785 93.4228 43.5039C94.6052 45.1292 95.1964 47.3102 95.1964 50.0468V78.7806H86.1538V50.6189C86.1538 49.8063 85.979 49.1429 85.6293 48.6287C85.2962 48.1146 84.7633 47.8575 84.0306 47.8575C83.4145 47.8575 82.9232 48.1229 82.5568 48.6536C82.2071 49.1843 82.0323 49.8146 82.0323 50.5443V78.7806H72.8399Z" fill="#1D646D"/>
</svg>
