<svg width="114" height="114" viewBox="0 0 114 114" fill="none" xmlns="http://www.w3.org/2000/svg">
<path d="M100.867 70.0835C96.675 75.3584 90.5219 76.4723 90.5219 76.4723L60.5288 42.8347L48.992 53.7245L39.9953 44.5396L42.3849 42.135L48.7735 48.5609L60.4807 37.4539L45.8787 20.1382C45.8787 20.1382 33.164 20.1382 31.1575 20.1382C29.1509 20.1382 28.1433 21.8233 27.4764 23.1684C26.8065 24.5134 24.1302 29.2287 24.1302 29.2287L10.1015 29.917C10.1015 29.917 8.76484 43.3115 15.7919 43.3115C15.7919 43.3115 16.4589 47.6897 19.805 47.6897C23.1512 47.6897 28.8359 47.6897 28.8359 47.6897C28.8359 47.6897 36.9018 56.9688 38.0456 58.4854C39.8932 60.9387 40.1913 61.1586 39.371 63.3863C37.4865 68.5043 31.0979 82.9327 29.832 86.2713C27.272 93.0143 35.2585 95.7816 38.2726 90.6438C42.5497 83.3467 47.4397 75.3586 47.4397 75.3586L50.0593 79.0486C50.0593 79.0486 47.962 82.2102 48.4871 86.9569C41.1534 86.9569 39.2121 94.8622 45.3424 94.8622C55.8207 94.8622 80.4412 94.8622 80.4412 94.8622C89.6083 94.8622 90.9137 90.1185 90.9137 84.8434C98.2501 86.9565 107.153 77.9916 100.867 70.0835Z" fill="#1D646D"/>
</svg>
