<!--?xml version="1.0" encoding="utf-8"?-->
<!-- Generator: Adobe Illustrator 18.1.1, SVG Export Plug-In . SVG Version: 6.00 Build 0)  -->

<svg version="1.1" id="_x31_0" xmlns="http://www.w3.org/2000/svg" xmlns:xlink="http://www.w3.org/1999/xlink" x="0px" y="0px" viewBox="0 0 512 512" style="width: 128px; height: 128px; opacity: 1;" xml:space="preserve">
<style type="text/css">
	.st0{fill:#374149;}
</style>
<g>
	<path class="st0" d="M430,402.24V159.041h32.238V86.56H49.836v71.879v0.441l0,0v0.161h32.242v241.874v1.325H64.652l-2.812-0.028
		c0.164-0.949,0.316-1.902,0.316-2.934v-90.238c0-9.52-7.839-17.36-17.438-17.36h-4.32c-9.602,0-17.442,7.84-17.442,17.36v90.238
		c0,0.985,0.153,1.891,0.305,2.801c0,0.055,0.008,0.102,0.008,0.161H0v22.898v0.14l0,0v0.161h512V402.24H430z M393.758,400.72
		h-70.48V289.681h70.426h0.054v110.52V400.72z M365.278,246.803v0.156h-44.559v-51.918h44.559V246.803z M278.317,348.478h-44.559
		v-52h44.559v51.844V348.478z M278.317,246.959h-44.559v-51.918h44.559v51.762V246.959z M191.359,348.478h-44.562v-52h44.562v51.844
		V348.478z M191.359,246.959h-44.562v-51.918h44.562v51.762V246.959z" style="fill: rgb(29, 100, 109);"></path>
	<circle class="st0" cx="374.09" cy="344.865" r="9" style="fill: rgb(29, 100, 109);"></circle>
</g>
</svg>
