<svg width="114" height="114" viewBox="0 0 114 114" fill="none" xmlns="http://www.w3.org/2000/svg">
<path d="M61.2286 102.026L73.9409 62.9712L68.8002 60.8538L61.2286 64.4528L53.6569 60.8538L48.5156 62.9712L61.2286 102.026Z" fill="white"/>
<path d="M93.6813 72.4926C92.0887 69.7318 89.0619 67.5678 84.1547 65.681C75.3951 62.3139 69.1633 59.8272 69.1633 59.8272C68.9138 59.7243 68.6325 59.732 68.3887 59.8476L61.2274 63.2512L54.066 59.8476C53.8223 59.732 53.5409 59.7243 53.2915 59.8272C53.2915 59.8272 47.3092 62.2155 38.3001 65.6817C33.4235 67.5576 30.4056 69.7184 28.8035 72.4811C27.2697 75.1257 27.1127 78.0749 27.3494 81.6887L28.7174 102.589H93.7387L95.106 81.6887C95.3434 78.0628 95.1921 75.111 93.6819 72.4926H93.6813ZM59.8065 72.6575L57.3334 86.871L52.8365 73.0357L57.4419 68.9504L59.8065 72.6575ZM62.6483 72.6575L65.0129 68.9504L69.6182 73.0357L65.1213 86.871L62.6483 72.6575ZM62.9456 64.5565L68.8264 61.7612L72.7568 63.3796L70.2639 71.048L62.945 64.5559L62.9456 64.5565ZM52.1896 71.0487L49.6967 63.3803L53.6271 61.7619L59.5079 64.5572L52.1889 71.0493L52.1896 71.0487Z" fill="#1D646D"/>
<path d="M76.3266 78.2485C77.716 78.2485 78.8424 77.1206 78.8424 75.7293C78.8424 74.3379 77.716 73.21 76.3266 73.21C74.9371 73.21 73.8108 74.3379 73.8108 75.7293C73.8108 77.1206 74.9371 78.2485 76.3266 78.2485Z" fill="white"/>
<path d="M81.727 72.5987C81.4526 72.5987 81.1802 72.4811 80.9907 72.253C80.6525 71.8461 80.708 71.2416 81.1144 70.9036L82.8206 69.4827C83.227 69.144 83.8306 69.1996 84.1681 69.6066C84.5063 70.0136 84.4508 70.618 84.0443 70.956L82.3382 72.377C82.1596 72.5259 81.9426 72.5987 81.727 72.5987Z" fill="white"/>
<path d="M78.325 70.1919C78.2414 70.1919 78.1572 70.1811 78.073 70.1581C77.5632 70.0188 77.262 69.4923 77.4011 68.9812L77.9849 66.8369C78.124 66.3264 78.6498 66.0255 79.1602 66.1641C79.67 66.3034 79.9711 66.8299 79.8321 67.341L79.2482 69.4853C79.1321 69.9114 78.7461 70.1919 78.3256 70.1919H78.325Z" fill="white"/>
<path d="M83.4701 76.3868C82.9776 76.3868 82.559 76.0085 82.5175 75.5076C82.4735 74.9799 82.8653 74.5173 83.3916 74.4732L85.6031 74.2892C86.1301 74.2457 86.5921 74.6374 86.6361 75.1652C86.6801 75.6929 86.2883 76.1555 85.7613 76.1996L83.5499 76.3836C83.5231 76.3861 83.4963 76.3868 83.4695 76.3868H83.4701Z" fill="white"/>
<path d="M47.0597 78.3157H21.422C20.5044 78.3157 19.7605 79.0606 19.7605 79.9794V95.621C19.7605 96.5399 20.5044 97.2848 21.422 97.2848H47.0597C47.9773 97.2848 48.7211 96.5399 48.7211 95.621V79.9794C48.7211 79.0606 47.9773 78.3157 47.0597 78.3157Z" fill="white"/>
<path d="M47.0597 98.2432H21.422C19.9781 98.2432 18.8035 97.0669 18.8035 95.6211V79.9788C18.8035 78.533 19.9781 77.3567 21.422 77.3567H47.0603C48.5042 77.3567 49.6788 78.533 49.6788 79.9788V95.6211C49.6788 97.0669 48.5042 98.2432 47.0603 98.2432H47.0597ZM21.422 79.2741C21.0341 79.2741 20.7176 79.5904 20.7176 79.9795V95.6217C20.7176 96.0102 21.0334 96.3271 21.422 96.3271H47.0603C47.4482 96.3271 47.7647 96.0108 47.7647 95.6217V79.9795C47.7647 79.591 47.4489 79.2741 47.0603 79.2741H21.422Z" fill="#1D646D"/>
<path d="M45.8475 89.8369H35.1616V91.1742H45.8475V89.8369Z" fill="#1D646D"/>
<path d="M45.8475 87.1316H35.1616V88.4689H45.8475V87.1316Z" fill="#1D646D"/>
<path d="M45.8475 84.4258H35.1616V85.7631H45.8475V84.4258Z" fill="#1D646D"/>
<path d="M32.0818 93.2208C31.9261 90.6887 30.0292 88.6882 27.7106 88.6882C25.3919 88.6882 23.495 90.6887 23.3394 93.2208H32.0818Z" fill="#1D646D"/>
<path d="M27.7104 88.0568C29.2757 88.0568 30.5446 86.7862 30.5446 85.2187C30.5446 83.6513 29.2757 82.3806 27.7104 82.3806C26.1451 82.3806 24.8762 83.6513 24.8762 85.2187C24.8762 86.7862 26.1451 88.0568 27.7104 88.0568Z" fill="#1D646D"/>
<path d="M74.2817 39.4224L74.3455 33.0798C74.3455 33.0798 68.8998 30.1848 66.4753 24.5623C61.5624 31.1432 48.466 33.0798 48.466 33.0798L48.4022 39.4224C48.4022 39.4224 47.1293 39.1822 46.162 38.1593C45.5878 39.0173 45.4844 40.5214 45.9859 42.0637C46.4919 43.6208 48.1661 44.7824 49.0945 45.1261C50.7425 51.8834 55.2988 56.7808 61.3391 56.7808C67.3794 56.7808 71.9363 51.8841 73.5837 45.1261C74.512 44.7824 76.1863 43.6208 76.6922 42.0637C77.2326 40.4013 77.0706 38.7835 76.3738 37.9708C75.4653 39.117 74.2811 39.4224 74.2811 39.4224H74.2817Z" fill="white"/>
<path d="M77.2365 37.5235C77.4374 37.1414 77.6065 36.7024 77.7207 36.1958C78.6561 32.0268 78.9585 29.7752 78.836 27.8885C78.7033 25.8528 78.0595 24.2632 76.9181 22.0423C75.2151 18.7294 73.6041 15.5949 68.6695 16.775C67.8139 14.862 66.5276 13.5969 64.8406 13.0117C62.1041 12.0616 58.3447 12.9491 53.6673 15.6492C47.8528 19.0048 45.2949 21.2481 44.2281 23.9252C43.1135 26.723 43.6411 29.8998 44.5165 35.162C44.5707 35.4898 44.6269 35.8252 44.6837 36.1689C44.7813 36.7587 44.9816 37.2986 45.2751 37.779C45.0773 38.1126 44.9249 38.5004 44.8298 38.9336C44.6046 39.9597 44.692 41.1762 45.0761 42.3595C45.6184 44.0277 47.144 45.2468 48.2829 45.8142C49.1806 49.1916 50.7706 52.0731 52.8991 54.1694C55.2688 56.5041 58.1878 57.7378 61.3397 57.7378C64.4916 57.7378 67.4106 56.5041 69.7803 54.1694C71.9088 52.0725 73.4995 49.1916 74.3965 45.8142C75.5348 45.2468 77.061 44.0277 77.6027 42.3595C77.9874 41.1762 78.0748 39.9597 77.849 38.9336C77.7284 38.3847 77.5178 37.9081 77.2365 37.5235ZM75.7824 41.7666C75.3849 42.9901 73.9378 43.9722 73.2519 44.2265C72.9539 44.337 72.7293 44.5887 72.6541 44.898C71.8661 48.1284 70.4082 50.8617 68.4372 52.8034C66.4332 54.7777 63.9786 55.8211 61.3391 55.8211C58.6995 55.8211 56.245 54.7777 54.2409 52.8034C52.27 50.8617 50.812 48.1284 50.0241 44.898C49.9488 44.5887 49.7248 44.337 49.4262 44.2265C48.7397 43.9722 47.2933 42.9895 46.8958 41.7666C46.6195 40.9155 46.5474 40.0338 46.6986 39.3457C46.7069 39.3067 46.7165 39.269 46.7267 39.232C47.537 39.7418 48.2822 39.8869 48.3141 39.8926C48.4532 39.9188 48.5968 39.8818 48.7065 39.7923C48.8156 39.7022 48.8801 39.5687 48.8813 39.4268L48.9413 33.4861C49.9437 33.3117 52.686 32.7826 55.7811 31.7425C58.0685 30.9738 60.1032 30.0793 61.8278 29.0839C63.7151 27.9945 65.2381 26.7793 66.3655 25.4637C67.6659 28.0942 69.5774 30.0666 71.0086 31.2927C72.2872 32.3884 73.384 33.0759 73.8644 33.357L73.8032 39.4172C73.8019 39.5661 73.8695 39.7073 73.9863 39.7993C74.0711 39.8664 74.1758 39.9016 74.2817 39.9016C74.3213 39.9016 74.3614 39.8964 74.401 39.8862C74.4565 39.8722 75.1558 39.6824 75.9125 39.0991C75.938 39.1764 75.961 39.2588 75.9802 39.3463C76.1314 40.0338 76.0593 40.9162 75.783 41.7672L75.7824 41.7666Z" fill="#1D646D"/>
</svg>
