<svg width="114" height="114" viewBox="0 0 114 114" fill="none" xmlns="http://www.w3.org/2000/svg">
<path d="M96.0206 19H17.9794C14.6752 19 12 21.6704 12 24.9623V74.736C12 78.0279 14.6752 80.6983 17.9794 80.6983H50.6719V82.0266C50.6719 85.3185 47.9967 87.9888 44.6925 87.9888H35.9062V95H48.7713H65.2288H78.0938V87.9888H69.3075C66.0033 87.9888 63.3281 85.3186 63.3281 82.0266V80.6983H96.0206C99.3248 80.6983 102 78.0281 102 74.736V24.9623C102 21.6704 99.3248 19 96.0206 19ZM93.5625 67.4919C93.5625 68.5902 92.6699 69.4803 91.5684 69.4803H22.4316C21.3301 69.4803 20.4375 68.5902 20.4375 67.4919V29.4017C20.4375 28.3034 21.3301 27.4134 22.4316 27.4134H91.5686C92.6701 27.4134 93.5627 28.3034 93.5627 29.4017V67.4919H93.5625Z" fill="#1D646D"/>
<path d="M46.905 47.8674C46.5091 47.0439 45.859 46.361 45.0549 45.8821C44.25 45.4037 43.2887 45.1285 42.2566 45.1277C40.8824 45.1285 39.6305 45.6172 38.7101 46.4267C38.2502 46.8317 37.8725 47.3183 37.6094 47.8674C37.3458 48.4156 37.1978 49.0267 37.1978 49.6669C37.1973 50.4826 37.4391 51.25 37.853 51.9036C38.2065 52.4625 38.6847 52.9406 39.2487 53.3145L38.3994 55.43L39.0127 55.3545C41.1316 55.0903 43.1598 54.2996 44.1231 53.8844C45.0383 53.5587 45.8283 53.0018 46.397 52.2784C46.9693 51.5501 47.3172 50.645 47.3165 49.6669C47.3171 49.0267 47.1683 48.4156 46.905 47.8674ZM45.8651 51.7603C45.389 52.3674 44.7022 52.8581 43.8891 53.143L43.878 53.1462L43.867 53.1512C43.0334 53.512 41.3473 54.1672 39.5549 54.4783L40.1624 52.967L39.8642 52.7967C39.2624 52.4538 38.7696 51.9868 38.4304 51.4508C38.0908 50.9131 37.9045 50.3098 37.9039 49.6668C37.9039 49.1618 38.0192 48.6821 38.2321 48.238C38.5508 47.5729 39.0943 46.9912 39.7919 46.576C40.4897 46.1609 41.3392 45.9143 42.2566 45.9147C43.4815 45.9143 44.5826 46.3531 45.366 47.0435C45.7574 47.3884 46.0693 47.7947 46.2818 48.238C46.4945 48.6821 46.6098 49.1618 46.6102 49.6668C46.6098 50.436 46.3421 51.1521 45.8651 51.7603Z" fill="#1D646D"/>
<path d="M40.2614 49.166C39.958 49.166 39.7122 49.4403 39.7122 49.7775C39.7122 50.1155 39.958 50.3895 40.2614 50.3895C40.5647 50.3895 40.811 50.1155 40.811 49.7775C40.811 49.4403 40.5647 49.166 40.2614 49.166Z" fill="#1D646D"/>
<path d="M42.3806 49.166C42.0771 49.166 41.8308 49.4403 41.8308 49.7775C41.8308 50.1155 42.0771 50.3895 42.3806 50.3895C42.684 50.3895 42.9301 50.1155 42.9301 49.7775C42.9301 49.4403 42.684 49.166 42.3806 49.166Z" fill="#1D646D"/>
<path d="M44.4996 49.166C44.1962 49.166 43.9502 49.4403 43.9502 49.7775C43.9502 50.1155 44.1962 50.3895 44.4996 50.3895C44.8034 50.3895 45.0495 50.1155 45.0495 49.7775C45.0494 49.4403 44.8034 49.166 44.4996 49.166Z" fill="#1D646D"/>
<path d="M34.1476 60.79C33.5736 60.9803 32.9617 61.0872 32.3245 61.0872C31.6872 61.0872 31.0754 60.9803 30.5013 60.79C26.3331 61.4722 24.1519 64.5266 24.1519 68.2338H32.3245H40.4971C40.4971 64.5266 38.316 61.4722 34.1476 60.79Z" fill="#1D646D"/>
<path d="M32.3245 59.766C34.7951 59.766 36.7977 57.7689 36.7977 55.3056V54.04C36.7977 51.5767 34.7951 49.5796 32.3245 49.5796C29.8539 49.5796 27.8513 51.5767 27.8513 54.04V55.3056C27.8513 57.7689 29.854 59.766 32.3245 59.766Z" fill="#1D646D"/>
<path d="M67.4746 47.8674C67.8705 47.0439 68.5207 46.361 69.3247 45.8821C70.1296 45.4037 71.0909 45.1285 72.123 45.1277C73.4972 45.1285 74.7492 45.6172 75.6695 46.4267C76.1295 46.8317 76.5072 47.3183 76.7702 47.8674C77.0338 48.4156 77.1819 49.0267 77.1819 49.6669C77.1823 50.4826 76.9405 51.25 76.5266 51.9036C76.1731 52.4625 75.6949 52.9406 75.1309 53.3145L75.9803 55.43L75.367 55.3545C73.2481 55.0903 71.2199 54.2996 70.2565 53.8844C69.3413 53.5587 68.5514 53.0018 67.9827 52.2784C67.4103 51.5501 67.0625 50.645 67.0631 49.6669C67.0625 49.0267 67.2113 48.4156 67.4746 47.8674ZM68.5145 51.7603C68.9907 52.3674 69.6774 52.8581 70.4905 53.143L70.5016 53.1462L70.5126 53.1512C71.3462 53.512 73.0324 54.1672 74.8248 54.4783L74.2172 52.967L74.5155 52.7967C75.1173 52.4538 75.61 51.9868 75.9492 51.4508C76.2888 50.9131 76.4751 50.3098 76.4757 49.6668C76.4757 49.1618 76.3605 48.6821 76.1476 48.238C75.8289 47.5729 75.2854 46.9912 74.5878 46.576C73.8899 46.1609 73.0404 45.9143 72.1231 45.9147C70.8982 45.9143 69.7971 46.3531 69.0137 47.0435C68.6223 47.3884 68.3103 47.7947 68.0978 48.238C67.8851 48.6821 67.7699 49.1618 67.7695 49.6668C67.7698 50.436 68.0375 51.1521 68.5145 51.7603Z" fill="#1D646D"/>
<path d="M74.1183 49.166C74.4217 49.166 74.6675 49.4403 74.6675 49.7775C74.6675 50.1155 74.4216 50.3895 74.1183 50.3895C73.8149 50.3895 73.5686 50.1155 73.5686 49.7775C73.5686 49.4403 73.8149 49.166 74.1183 49.166Z" fill="#1D646D"/>
<path d="M71.999 49.166C72.3026 49.166 72.5488 49.4403 72.5488 49.7775C72.5488 50.1155 72.3026 50.3895 71.999 50.3895C71.6956 50.3895 71.4496 50.1155 71.4496 49.7775C71.4496 49.4403 71.6956 49.166 71.999 49.166Z" fill="#1D646D"/>
<path d="M69.88 49.166C70.1834 49.166 70.4294 49.4403 70.4294 49.7775C70.4294 50.1155 70.1834 50.3895 69.88 50.3895C69.5762 50.3895 69.3302 50.1155 69.3302 49.7775C69.3302 49.4403 69.5762 49.166 69.88 49.166Z" fill="#1D646D"/>
<path d="M80.2321 60.79C80.806 60.9803 81.4179 61.0872 82.0552 61.0872C82.6924 61.0872 83.3043 60.9803 83.8783 60.79C88.0465 61.4722 90.2278 64.5266 90.2278 68.2338H82.0552H73.8826C73.8826 64.5266 76.0637 61.4722 80.2321 60.79Z" fill="#1D646D"/>
<path d="M82.0551 59.766C79.5845 59.766 77.5819 57.7689 77.5819 55.3056V54.04C77.5819 51.5767 79.5845 49.5796 82.0551 49.5796C84.5257 49.5796 86.5283 51.5767 86.5283 54.04V55.3056C86.5283 57.7689 84.5257 59.766 82.0551 59.766Z" fill="#1D646D"/>
</svg>
