<svg width="114" height="114" viewBox="0 0 114 114" fill="none" xmlns="http://www.w3.org/2000/svg">
<path d="M36.3075 43.3159C41.0808 43.3159 44.9487 39.4707 44.9487 34.7284C44.9487 29.9848 41.0808 26.1396 36.3075 26.1396C31.5369 26.1396 27.6689 29.9848 27.6689 34.7284C27.6689 39.4707 31.5369 43.3159 36.3075 43.3159Z" fill="#1D646D"/>
<path d="M96.6931 87.2592L60.8053 43.7822L66.548 37.5351L78.1136 34.1462C80.6279 33.6245 82.2395 31.1765 81.716 28.6784C81.1926 26.179 78.7298 24.5769 76.2181 25.0985L65.0962 27.4761C63.1647 27.8887 61.3674 28.7784 59.8717 30.0638L32.3338 53.732L19.7678 55.9431C17.2482 56.4276 15.598 58.8499 16.0853 61.3571C16.5728 63.8629 19.0096 65.501 21.5316 65.0178L33.2544 64.0437C35.5262 63.8283 37.6872 62.9618 39.4742 61.5496L46.0061 56.7855L53.2549 64.6205L45.4465 70.815C42.6227 73.044 42.1226 77.7516 45.1138 80.4766L62.7187 94.4563C64.7405 96.4943 68.0437 96.5174 70.0939 94.5076C72.1439 92.4979 72.1671 89.2155 70.1455 87.1762L56.4113 75.6869L66.8988 70.1716L88.8746 94.1218C90.7802 96.2686 94.0759 96.4736 96.2368 94.5781C98.395 92.6821 98.6014 89.4074 96.6931 87.2592Z" fill="#1D646D"/>
</svg>
