<svg width="114" height="114" viewBox="0 0 114 114" fill="none" xmlns="http://www.w3.org/2000/svg">
<path d="M69.647 20.9221H60.8549H58.5437H52.2496H49.749H41.1463C41.1463 26.4802 38.1818 32.4093 33.7405 33.8936V38.7123H42.3486H52.2496H58.5437H60.8549H77.0502V33.8936C72.6089 32.4093 69.647 26.4802 69.647 20.9221Z" fill="#1D646D"/>
<path d="M95.1861 83.5642H86.394H84.0828H77.7886H75.288H73.3473H66.6853H64.5553H62.2441H55.9499H53.4493H48.5469H44.8466H39.7575H37.4434H31.1493H28.6514H20.046C20.046 89.1249 17.0843 95.0542 12.6428 96.5385V101.357H21.2482H31.1491H37.4406H37.4434H39.7575H46.049H55.9499H55.9527H59.2797H62.2442H64.5553H67.8877H77.7886H80.7504H84.0828H86.394H102.589V96.5385C98.148 95.0542 95.1861 89.1249 95.1861 83.5642Z" fill="#1D646D"/>
<path d="M81.1978 50.9443H56.1448L68.2391 68.7373H88.5984V63.9186C84.1569 62.4343 81.1978 56.5052 81.1978 50.9443Z" fill="#1D646D"/>
<path d="M55.2609 50.9443H30.2076C30.2076 56.5051 27.2459 62.4343 22.8044 63.9186V68.7373H43.1638L55.2609 50.9443Z" fill="#1D646D"/>
<path d="M67.8162 72.0934L55.7026 54.2758L43.5892 72.0934L39.9165 69.5865L55.7026 46.373L71.4889 69.5865L67.8162 72.0934Z" fill="#1D646D"/>
<path d="M42.5847 19.6192C40.6631 19.6192 39.104 18.0524 39.104 16.131C39.104 14.2068 40.6631 12.6428 42.5847 12.6428C42.991 12.6428 43.3917 12.7116 43.7705 12.8518L43.3587 14.3224C41.3989 14.028 41.4537 15.3723 41.4537 16.131C41.4537 16.755 41.9616 17.2636 42.5847 17.2636C42.7658 17.2636 43.9847 17.1482 44.141 17.0685L44.2399 19.6194C43.7512 19.8637 43.1337 19.6192 42.5847 19.6192Z" fill="#1D646D"/>
<path d="M42.1839 19.1271L39.0493 19.6192L37.5835 17.4585L41.7915 18.3409L42.1839 19.1271Z" fill="#1D646D"/>
<path d="M68.4368 19.6192C70.3583 19.6192 71.9174 18.0524 71.9174 16.131C71.9174 14.2068 70.3583 12.6428 68.4368 12.6428C68.0304 12.6428 67.6325 12.7116 67.2509 12.8518L67.6654 14.3224C69.6226 14.0282 69.5676 15.3724 69.5676 16.131C69.5676 16.755 69.0597 17.2636 68.4366 17.2636C68.2609 17.2636 67.0366 17.1482 66.8803 17.0685L66.7842 19.6194C67.2729 19.8637 67.8878 19.6192 68.4368 19.6192Z" fill="#1D646D"/>
<path d="M68.8374 19.1271L71.9722 19.6192L73.4407 17.4585L69.2299 18.3409L68.8374 19.1271Z" fill="#1D646D"/>
<path d="M47.0643 42.4204H42.623V47.6101H47.0643V42.4204Z" fill="#1D646D"/>
<path d="M57.8026 62.0659H53.3613V67.2556H57.8026V62.0659Z" fill="#1D646D"/>
<path d="M67.7943 42.4204H63.353V47.6101H67.7943V42.4204Z" fill="#1D646D"/>
<path d="M33.7406 74.6692H29.2993V79.8561H33.7406V74.6692Z" fill="#1D646D"/>
<path d="M57.8026 74.6692H53.3613V79.8561H57.8026V74.6692Z" fill="#1D646D"/>
<path d="M81.121 74.6692H76.6797V79.8561H81.121V74.6692Z" fill="#1D646D"/>
</svg>
