<!--?xml version="1.0" encoding="utf-8"?-->
<!-- Generator: Adobe Illustrator 24.1.1, SVG Export Plug-In . SVG Version: 6.00 Build 0)  -->
<svg version="1.1" id="_x31_0" xmlns="http://www.w3.org/2000/svg" xmlns:xlink="http://www.w3.org/1999/xlink" x="0px" y="0px" viewBox="0 0 512 512" style="width: 128px; height: 128px; opacity: 1;" xml:space="preserve">
<style type="text/css">
	.st0{fill:#374149;}
</style>
<g>
	<path class="st0" d="M509.234,64.444H2.762C1.238,64.444,0,65.674,0,67.21V387.13c0,1.523,1.238,2.762,2.762,2.762h242.346v33.832
		h-59.043c-1.02,0-1.985,0.485-2.59,1.27l-8.082,10.676l-5.066,6.699l-0.293,0.535c-0.254,0.48-0.367,0.992-0.36,1.496
		c0,0.016,0.012,0.035,0.012,0.054c0.004,0.086,0.043,0.161,0.054,0.246c0.047,0.394,0.157,0.766,0.34,1.118
		c0.07,0.133,0.153,0.246,0.242,0.37c0.199,0.282,0.438,0.516,0.722,0.719c0.118,0.09,0.219,0.179,0.352,0.25
		c0.438,0.23,0.922,0.398,1.473,0.398h166.262c0.566,0,1.055-0.168,1.5-0.402c0.133-0.07,0.234-0.168,0.36-0.254
		c0.281-0.207,0.519-0.438,0.718-0.718c0.09-0.13,0.172-0.25,0.246-0.391c0.164-0.32,0.262-0.656,0.312-1.015
		c0.02-0.125,0.066-0.234,0.07-0.363c0-0.039,0.02-0.074,0.02-0.114c0-0.469-0.106-0.946-0.332-1.394l-0.305-0.535l-5.062-6.699
		l-8.145-10.676c-0.606-0.785-1.562-1.27-2.59-1.27h-59.035v-33.832h242.346c1.523,0,2.766-1.238,2.766-2.762V67.21
		C512,65.674,510.758,64.444,509.234,64.444z M23.859,94.304c0-2.902,2.356-5.258,5.258-5.258H148.99c4.676,0,7.023,5.66,3.71,8.969
		L32.828,217.89c-1.07,1.07-2.386,1.547-3.675,1.547c-2.703,0-5.294-2.098-5.294-5.262V94.304z M499.938,348.751H258.935H12.058
		v-9.563h487.879V348.751z" style="fill: rgb(29, 100, 109);"></path>
</g>
</svg>
