<!--?xml version="1.0" encoding="utf-8"?-->
<!-- Generator: Adobe Illustrator 19.1.1, SVG Export Plug-In . SVG Version: 6.00 Build 0)  -->
<svg version="1.1" id="_x31_0" xmlns="http://www.w3.org/2000/svg" xmlns:xlink="http://www.w3.org/1999/xlink" x="0px" y="0px" viewBox="0 0 512 512" style="width: 64px; height: 64px; opacity: 1;" xml:space="preserve">
<style type="text/css">
	.st0{fill:#374149;}
</style>
<g>
	<path class="st0" d="M496.713,468.992c-0.082-0.859-10.766-87.098-22.254-173.777c-23.945-180.458-27.718-186.535-31.71-193
		l-0.836-1.332l-0.996-1.25c-12.098-14.926-77.637-50.882-95.114-60.32l-30.41-30.379C309.619,3.16,301.963,0,293.834,0H218.17
		c-8.16,0-15.817,3.16-21.586,8.934l-30.383,30.379c-17.481,9.438-83.016,45.394-95.114,60.32l-1.027,1.25l-0.832,1.332
		c-3.996,6.465-7.77,12.542-31.687,193C26.025,381.894,15.373,468.133,15.26,468.992l-2.691,21.778l21.254,5.469l57.715,14.844
		c2.328,0.609,4.742,0.918,7.156,0.918c13.79,0,25.664-9.824,28.219-23.363c0.695-3.582,1.718-9.102,2.969-16.039h252.238
		c1.25,6.91,2.278,12.457,2.942,16.039C387.643,502.176,399.518,512,413.28,512c2.414,0,4.828-0.309,7.187-0.918l57.684-14.844
		l21.281-5.469L496.713,468.992z M413.28,487.027c-1.746,0-3.328-1.25-3.692-3.054c-1.246-6.547-3.66-19.95-6.574-36.321
		l63.816-16.394c3.164,24.996,5.106,40.813,5.106,40.813l-57.684,14.816C413.916,486.969,413.612,487.027,413.28,487.027z
		 M400.568,433.938c-4.301-24.082-9.152-51.379-12.926-72.77v-0.359v-6.356c0.054-24.804,0.195-57.874,1.027-90.894
		c0.218-8.27,0.5-16.508,0.886-24.609c0.387-8.102,0.805-16.066,1.387-23.723c0.25-3.859,0.582-7.633,0.945-11.32
		c0.332-3.664,0.637-7.297,1.082-10.766c0.746-6.996,1.664-13.57,2.637-19.59c0.969-6.023,2.023-11.488,3.16-16.23
		c1.11-4.773,2.305-8.797,3.414-11.961c1.109-3.164,2.164-5.492,2.914-6.77c0.191-0.359,0.332-0.609,0.469-0.777
		c0.058-0.082,0.168-0.278,0.222-0.332v-0.028c0.055-0.054,0.086-0.113,0.086-0.113l0.191-0.191c0-0.032,0.027-0.055,0.058-0.086
		c2.192-2.469,1.942-6.242-0.531-8.434c-2.469-2.164-6.242-1.942-8.434,0.554c0,0-0.054,0.028-0.137,0.141
		c-0.168,0.192-0.39,0.496-0.722,0.914c-0.386,0.5-0.5,0.722-0.805,1.191c-0.277,0.446-0.554,0.946-0.805,1.446
		c-1.164,2.109-2.332,5.023-3.55,8.738c-1.222,3.664-2.387,8.129-3.442,13.206c-1.11,5.106-2.054,10.821-2.942,17.094
		c-0.832,6.242-1.609,13.011-2.218,20.171c-0.359,3.578-0.582,7.27-0.832,11.016c-0.25,3.774-0.5,7.602-0.668,11.512
		c-0.414,7.797-0.637,15.843-0.832,24.031c-0.191,8.183-0.25,16.48-0.278,24.773c-0.019,22.86,0.293,45.645,0.657,65.75
		c0.054,5.422,0.113,10.813,0.156,16.09l-12.938-45.629c-0.75-2.637-3.191-4.496-5.938-4.496c-0.554,0-1.11,0.082-1.664,0.222
		l-19.34,5.465c-1.582,0.446-2.914,1.473-3.718,2.914c-0.805,1.446-0.996,3.11-0.555,4.691l14.375,50.969
		c3.746,13.317,16.035,22.614,29.856,22.614c0.191,0,0.386,0,0.582-0.031l-0.027,24.973H266.502h-1.386v-20.754h1.386h7.687
		c2.051,0,3.746-1.664,3.746-3.718c0-2.078-1.695-3.742-3.746-3.742h-7.687h-1.386v-31.16h1.386h7.687
		c2.051,0,3.746-1.664,3.746-3.746c0-2.054-1.695-3.746-3.746-3.746h-7.687h-1.386v-31.13h1.386h7.687
		c2.051,0,3.746-1.695,3.746-3.75c0-2.078-1.695-3.742-3.746-3.742h-7.687h-1.386v-31.133h1.386h7.687
		c2.051,0,3.746-1.691,3.746-3.746c0-2.082-1.695-3.746-3.746-3.746h-7.687h-1.386V231.68h1.386h7.687
		c2.051,0,3.746-1.668,3.746-3.746c0-2.054-1.695-3.746-3.746-3.746h-7.687h-1.386v-31.133h1.386h7.687
		c2.051,0,3.746-1.664,3.746-3.746c0-2.051-1.695-3.746-3.746-3.746h-7.687h-1.386v-16.867l-7.809-9.957l-18.027-23.586
		c4.886,1.813,10.414,2.829,16.706,2.829c11.07,0,19.867-3.137,26.833-8.102l51.855,17.258c1.832,0.582,3.691,0.886,5.55,0.886
		c3.91,0,7.742-1.305,10.875-3.773c4.664-3.692,7.133-9.406,6.606-15.317l-3.215-36.711l-1.714-20.586
		c25.277,14.32,63.09,36.774,68.746,43.73c5.91,9.57,31.184,204.461,43.559,302.016l-60.118,15.437L400.568,433.938z
		 M381.373,415.274v32.351H266.502h-0.942h-0.445v-4.633v-27.718h1.386H381.373z M360.311,356.758l-13.398-47.558l12.511-3.523
		l13.442,47.699l5.219,18.742C369.736,371.008,362.639,365.004,360.311,356.758z M165.092,309.199l-13.402,47.558
		c-2.062,7.317-7.886,12.856-15.004,14.79c-0.918,0.226-1.855,0.398-2.816,0.507l18.707-66.378L165.092,309.199z M256.791,415.274
		v32.351h-126.16l-0.027-32.351H256.791z M270.658,65.512l-1.851,8.484H243.17l-1.832-8.515h24.461L270.658,65.512z
		 M338.049,127.774l-41.164-13.711l-1.414-0.473l-6.457-2.14l-0.313-0.114l19.558-47.855l1.137-2.774l3.11-7.633l20.367,14.789
		l3.754,42.918L338.049,127.774z M288.392,60.707h-7.519h-9.184h-31.406h-4.078H223.58l-12.598-30.856l3.246-3.273
		c1.055-1.028,2.469-1.61,3.942-1.61h75.664c1.469,0,2.883,0.582,3.91,1.61l3.246,3.246L288.392,60.707z M203.74,63.481
		l18.113,44.378l1.41,3.489l-6.758,2.242l-1.418,0.473l-27.679,9.222l-13.543,4.446l5.266-59.867l20.363-14.789l3.11,7.633
		L203.74,63.481z M45.143,431.258l63.816,16.394c-2.914,16.371-5.328,29.774-6.574,36.321c-0.333,1.805-1.914,3.054-3.692,3.054
		c-0.305,0-0.637-0.058-0.942-0.141L40.037,472.07C40.037,472.07,41.983,456.254,45.143,431.258z M111.388,433.946l-64.496-16.59
		c12.375-97.582,37.653-292.418,43.562-301.988c5.661-6.965,43.531-29.438,68.836-43.785l-5.019,57.351
		c-0.531,5.91,1.942,11.625,6.602,15.317c3.164,2.468,6.992,3.773,10.875,3.773c1.859,0,3.746-0.305,5.578-0.886l47.809-15.926
		l11.043,14.066l20.613,26.273v185.79v49.61H131.213h-0.61v-5.426l0.574-19.515h0.007c13.817,0,26.082-9.297,29.856-22.614
		l14.344-50.969c0.941-3.277-0.973-6.687-4.246-7.606l-19.34-5.465c-0.554-0.14-1.11-0.222-1.691-0.222
		c-2.746,0-5.16,1.859-5.91,4.496l-6.664,23.57l-6.449,22.25c0.5-23.516,1.015-52.723,0.961-82.032
		c0-8.293-0.055-16.59-0.278-24.773c-0.195-8.188-0.418-16.234-0.832-24.031c-0.141-3.91-0.39-7.738-0.668-11.512
		c-0.246-3.746-0.469-7.438-0.832-11.016c-0.61-7.16-1.386-13.93-2.218-20.171c-0.887-6.274-1.832-11.989-2.914-17.094
		c-1.054-5.078-2.246-9.542-3.438-13.206c-1.222-3.715-2.414-6.63-3.582-8.738c-0.25-0.5-0.528-1-0.805-1.446
		c-0.305-0.469-0.387-0.691-0.805-1.191c-0.305-0.418-0.555-0.722-0.722-0.914c-0.082-0.113-0.137-0.141-0.137-0.141
		c0-0.027-0.055-0.082-0.082-0.109c-2.25-2.414-6.023-2.582-8.438-0.336c-2.442,2.25-2.578,6.023-0.332,8.438l0.141,0.164
		c0,0,0.054,0.058,0.11,0.141h0.027v0.027c0.027,0.054,0.113,0.222,0.195,0.305c0.11,0.168,0.278,0.418,0.446,0.777
		c0.746,1.278,1.801,3.606,2.91,6.77c1.137,3.164,2.305,7.188,3.414,11.961c1.137,4.742,2.191,10.207,3.191,16.23
		c0.942,6.02,1.859,12.594,2.637,19.59c0.442,3.469,0.718,7.102,1.082,10.766c0.332,3.687,0.691,7.461,0.914,11.32
		c0.61,7.657,1.027,15.622,1.414,23.723c0.39,8.101,0.641,16.339,0.859,24.609c0.836,33.02,0.973,66.09,1.054,90.894v6.188v0.113
		c-3.675,20.887-8.41,47.657-12.629,71.356C111.616,432.718,111.502,433.34,111.388,433.946z" style="fill: rgb(29, 100, 109);"></path>
	<path class="st0" d="M57.576,449.402c-4.359,0-7.883,3.523-7.883,7.879c0,4.328,3.524,7.851,7.883,7.851
		c4.328,0,7.851-3.523,7.851-7.851C65.428,452.926,61.904,449.402,57.576,449.402z" style="fill: rgb(29, 100, 109);"></path>
	<path class="st0" d="M454.428,449.402c-4.355,0-7.878,3.523-7.878,7.879c0,4.328,3.523,7.851,7.878,7.851
		c4.328,0,7.852-3.523,7.852-7.851C462.28,452.926,458.756,449.402,454.428,449.402z" style="fill: rgb(29, 100, 109);"></path>
	<path class="st0" d="M147.518,229.782c0.43,0.613,0.742,1.054,1.175,1.671v42.719c0,3.484,2.825,6.312,6.313,6.312h62.539
		c3.484,0,6.34-2.855,6.34-6.343V231.45c0.43-0.614,0.742-1.055,1.171-1.668c2.914-0.914,5.043-3.653,5.043-6.844v-23.461
		c0-0.989-0.801-1.79-1.789-1.79h-84.043c-0.988,0-1.789,0.801-1.789,1.79v23.461C142.479,226.156,144.608,228.871,147.518,229.782z
		 M158.404,268.984V230.5c0-0.984,0.805-1.789,1.789-1.789h52.192c0.988,0,1.789,0.801,1.789,1.789v38.481
		c0,0.988-0.801,1.793-1.793,1.793h-52.188C159.205,270.774,158.404,269.973,158.404,268.984z M152.189,218.598v-9.406
		c0-0.988,0.801-1.793,1.79-1.793H218.6c0.988,0,1.789,0.801,1.789,1.793v9.402c0,0.992-0.801,1.793-1.789,1.793h-64.621
		C152.99,220.386,152.189,219.586,152.189,218.598z" style="fill: rgb(29, 100, 109);"></path>
	<path class="st0" d="M367.732,197.687h-11.554v-25.332c0-4.832-3.934-8.766-8.766-8.766h-5.551c-4.851,0-8.797,3.934-8.797,8.766
		v25.332h-49.371c-0.992,0-1.793,0.801-1.793,1.79v23.461c0,3.218,2.129,5.934,5.043,6.844c0.43,0.613,0.742,1.054,1.172,1.671
		v42.719c0,3.484,2.828,6.312,6.312,6.312h62.539c3.488,0,6.344-2.855,6.344-6.343V231.45c0.43-0.614,0.742-1.055,1.172-1.668
		c2.91-0.914,5.042-3.653,5.042-6.844v-23.461C369.525,198.492,368.724,197.687,367.732,197.687z M297.826,268.984V230.5
		c0-0.984,0.809-1.789,1.793-1.789h52.188c0.988,0,1.793,0.801,1.793,1.789v38.484c0,0.985-0.805,1.79-1.793,1.79h-52.188
		C298.631,270.774,297.826,269.973,297.826,268.984z M341.388,172.355c0-0.242,0.211-0.441,0.473-0.441h5.551
		c0.25,0,0.441,0.191,0.441,0.441v25.332h-6.465V172.355z M291.612,218.598v-9.406c0-0.988,0.805-1.793,1.793-1.793h64.617
		c0.989,0,1.79,0.801,1.79,1.793v9.402c0,0.992-0.801,1.793-1.79,1.793h-64.617C292.412,220.386,291.612,219.586,291.612,218.598z" style="fill: rgb(29, 100, 109);"></path>
</g>
</svg>
