<svg width="114" height="114" viewBox="0 0 114 114" fill="none" xmlns="http://www.w3.org/2000/svg">
<path d="M94.6294 73.7658C91.0191 68.552 87.8856 62.8724 85.2996 57.6027C81.4964 49.8535 78.8827 43.0118 77.7559 39.9036C72.9182 40.5323 68.3114 40.8111 64.042 40.8126C50.963 40.8096 40.9375 38.4145 36.0605 36.9644C42.8184 70.2614 61.757 94.1465 66.5918 99.8036L103.821 84.5628C100.47 81.5059 97.4098 77.7769 94.6294 73.7658Z" fill="#1D646D"/>
<path d="M28.6687 53.9413C24.2572 64.4353 17.7258 77.6697 8.94653 89.8911L25.0771 92.7354L31.3406 70.9696C31.3406 70.9696 34.7501 85.2471 41.9482 86.0187L42.1722 95.75L61.3077 99.1234C54.4359 90.4186 39.9886 69.6703 33.3841 41.7229C32.2343 44.9953 30.6701 49.178 28.6687 53.9413Z" fill="#1D646D"/>
</svg>
