<svg width="72" height="75" viewBox="0 0 72 75" fill="none" xmlns="http://www.w3.org/2000/svg">
<path d="M32.9032 75C28.4263 75 24.7866 71.3925 24.7866 66.9553C24.7866 62.518 28.4021 58.9406 32.8486 58.9105C33.8374 58.9105 34.7231 58.3033 35.087 57.3894L37.926 50.2886C38.2718 49.4228 38.0838 48.4368 37.4407 47.7573C36.9615 47.2523 36.5611 46.6751 36.2578 46.0498C35.8514 45.2141 35.0021 44.6849 34.0679 44.6849C34.0618 44.6849 18.2715 44.8353 18.2715 44.8353C17.2766 44.8473 16.3849 45.4606 16.027 46.3805C14.7955 49.5791 11.7563 51.6414 8.29252 51.6414C3.71859 51.6414 0 47.9557 0 43.4223C0 38.8889 3.71859 35.2032 8.29252 35.2032C8.49271 35.2032 8.6929 35.2092 8.89915 35.2273C8.95981 35.2273 9.02655 35.2333 9.08721 35.2333C10.0093 35.2333 10.8646 34.7102 11.271 33.8745L13.2486 29.816C13.7339 28.8179 13.4731 27.6154 12.6056 26.912C9.31772 24.2304 7.43112 20.2742 7.43112 16.0414C7.43112 8.26719 13.8128 1.94204 21.6564 1.94204C27.7287 1.94204 33.1337 5.76599 35.1113 11.4598C35.451 12.4399 36.3791 13.0832 37.4043 13.0832C37.4771 13.0832 37.556 13.0832 37.6288 13.0712L44.6049 12.4339C45.7029 12.3316 46.5886 11.5139 46.7766 10.4377C47.8079 4.38913 53.0734 0 59.2913 0C66.2977 0 72 5.65175 72 12.5962C72 19.5406 66.2977 25.1924 59.2913 25.1924C54.0136 25.1924 49.2274 21.8915 47.3772 16.9733C47.0193 16.0233 46.1093 15.4101 45.1024 15.4101C45.0296 15.4101 44.9507 15.41 44.8779 15.4221L37.9018 16.0594C36.7916 16.1616 35.8878 17.0034 35.724 18.0976C34.6927 24.9579 28.6447 30.1347 21.6564 30.1347C20.6494 30.1347 19.6424 30.0265 18.6658 29.822C18.4959 29.786 18.3261 29.7679 18.1562 29.7679C17.2402 29.7679 16.3849 30.285 15.9724 31.1267L13.9948 35.1852C13.558 36.075 13.7218 37.1392 14.3952 37.8608C15.0685 38.5823 15.5963 39.412 15.9724 40.3199C16.3424 41.2278 17.2341 41.817 18.2229 41.817C18.229 41.817 34.0194 41.6667 34.0194 41.6667C34.9596 41.6607 35.8089 41.1135 36.1971 40.2658C37.3194 37.8547 39.7641 36.2915 42.4272 36.2915C46.2064 36.2915 49.282 39.3398 49.282 43.0856C49.282 46.8314 46.4551 49.6453 42.8518 49.8677C41.9115 49.9218 41.0926 50.5171 40.7468 51.3829L37.9078 58.4836C37.5439 59.3975 37.7744 60.4377 38.4963 61.1171C40.122 62.6443 41.0198 64.7126 41.0198 66.9372C41.0198 71.3745 37.3801 74.982 32.9032 74.982V75ZM21.6564 4.95431C15.4871 4.95431 10.4642 9.93266 10.4642 16.0474C10.4642 16.1496 10.4642 16.2458 10.4764 16.348L10.5006 16.811C10.5188 17.0515 10.537 17.2559 10.5613 17.4543C10.5613 17.4784 10.5674 17.5024 10.5734 17.5265C10.6341 17.9473 10.7069 18.3442 10.81 18.747L10.8464 18.8973C11.8898 22.7874 14.9714 25.7997 18.8963 26.7857L19.0419 26.8218C19.2967 26.8819 19.5029 26.924 19.7031 26.9601C19.8669 26.9901 20.0185 27.0082 20.1763 27.0322L20.2854 27.0442C20.4189 27.0623 20.5342 27.0803 20.6555 27.0863C20.9831 27.1164 21.3046 27.1344 21.614 27.1344C21.6443 27.1344 21.7049 27.1344 21.7171 27.1344C22.0507 27.1344 22.3904 27.1164 22.7241 27.0863C22.7847 27.0863 22.8393 27.0743 22.8939 27.0623C23.3064 27.0142 23.6158 26.9661 23.8948 26.912C23.9434 26.8999 24.1618 26.8458 24.2103 26.8338L24.3134 26.8098C24.55 26.7556 24.7502 26.7075 24.9504 26.6414C25.0414 26.6113 25.1324 26.5813 25.2294 26.5452L25.5449 26.431C25.6844 26.3829 25.8178 26.3348 25.9513 26.2807C26.0787 26.2266 26.1939 26.1724 26.3031 26.1183L26.6368 25.962C26.7399 25.9139 26.8248 25.8778 26.9037 25.8297C27.0736 25.7395 27.2252 25.6494 27.3769 25.5532C27.3769 25.5532 27.7712 25.3187 27.7954 25.3006C27.9896 25.1744 28.1533 25.0541 28.3171 24.9279C28.3171 24.9279 28.6265 24.6994 28.6508 24.6813C28.857 24.513 29.0451 24.3446 29.2331 24.1763C29.2331 24.1763 29.3666 24.056 29.3848 24.044C29.6274 23.8155 29.8094 23.6171 29.9853 23.4187L30.0703 23.3285C30.3311 23.0339 30.4949 22.8175 30.6587 22.601L30.7254 22.5168C30.9559 22.1982 31.1015 21.9697 31.241 21.7352C31.241 21.7352 31.3502 21.5548 31.3624 21.5368C31.4958 21.3083 31.6171 21.0678 31.7324 20.8273C31.7324 20.8273 31.8416 20.6049 31.8537 20.5808C31.9569 20.3583 32.0539 20.1118 32.1449 19.8653L32.2238 19.6489C32.3208 19.3603 32.3936 19.1198 32.4604 18.8672C32.4604 18.8672 32.5392 18.5666 32.5453 18.5426C32.5999 18.3141 32.6423 18.0676 32.6848 17.8271C32.703 17.7068 32.7273 17.5806 32.7394 17.4603C32.7697 17.2439 32.7879 17.0034 32.8061 16.7629C32.8061 16.7088 32.8183 16.5765 32.8183 16.5224L32.8304 16.33C32.8365 16.2338 32.8425 16.1376 32.8425 16.0474C32.8425 15.2297 32.7394 14.3879 32.5453 13.5402C32.515 13.3899 32.4786 13.2756 32.4786 13.2636L32.3936 12.969C32.3633 12.8607 32.339 12.7585 32.3087 12.6623C32.2784 12.5661 32.242 12.482 32.2056 12.3858L32.1449 12.2234C32.0175 11.8807 31.8719 11.532 31.7081 11.2013C31.7081 11.2013 31.5747 10.9247 31.5626 10.8947C31.4716 10.7263 31.3806 10.57 31.2896 10.4197C31.2774 10.4016 31.1015 10.107 31.0591 10.0469C30.9438 9.87254 30.8285 9.7102 30.7133 9.54786C30.6344 9.44565 30.5616 9.34343 30.4828 9.24122C30.3614 9.08489 30.2341 8.93458 30.1067 8.78427C30.0157 8.68206 29.9307 8.59187 29.8458 8.50168C29.6942 8.33935 29.5607 8.20105 29.4272 8.07479C29.3545 8.00264 29.2756 7.93651 29.1967 7.86436L29.039 7.72607C28.8995 7.59981 28.7964 7.50962 28.6872 7.41943C28.6022 7.34728 28.4991 7.27514 28.4021 7.209L28.2747 7.1128C28.0623 6.95647 27.8379 6.80616 27.6074 6.66186L27.5528 6.62578C27.3769 6.51756 27.2313 6.42737 27.0857 6.3492C27.0008 6.3011 26.6914 6.15079 26.6914 6.15079C26.5215 6.06662 26.3456 5.97643 26.1576 5.89827C26.0484 5.85017 25.9331 5.80207 25.8178 5.75998C25.5691 5.66378 25.375 5.59163 25.1809 5.52549C25.0535 5.48341 24.9261 5.44733 24.7987 5.40525C24.5925 5.34512 24.3741 5.29101 24.1618 5.24291L24.0526 5.21885C23.9616 5.20081 23.8706 5.17677 23.7796 5.15873C23.5491 5.11664 23.3004 5.08056 23.0456 5.0505C23.0456 5.0505 22.7665 5.01443 22.7362 5.00842C22.3601 4.97234 22.0143 4.95431 21.6746 4.95431H21.6625H21.6564Z" fill="#1D646D"/>
</svg>
