<!--?xml version="1.0" encoding="utf-8"?-->
<!-- Generator: Adobe Illustrator 19.1.1, SVG Export Plug-In . SVG Version: 6.00 Build 0)  -->
<svg version="1.1" id="_x31_0" xmlns="http://www.w3.org/2000/svg" xmlns:xlink="http://www.w3.org/1999/xlink" x="0px" y="0px" viewBox="0 0 512 512" style="width: 64px; height: 64px; opacity: 1;" xml:space="preserve">
<style type="text/css">
	.st0{fill:#374149;}
</style>
<g>
	<path class="st0" d="M240.055,315.226c0,0,0.266-0.058,0.762-0.168c0.618-0.156,1.383-0.367,2.29-0.645
		c1.841-0.566,4.385-1.442,7.394-2.602c6.006-2.333,13.861-5.826,21.379-10.297c1.88-1.114,3.736-2.302,5.538-3.529
		c1.794-1.246,3.548-2.513,5.189-3.869c1.657-1.325,3.197-2.739,4.627-4.15c0.715-0.7,1.375-1.458,2.032-2.154
		c0.633-0.734,1.227-1.477,1.806-2.18c0.539-0.758,1.058-1.486,1.551-2.181c0.453-0.746,0.883-1.454,1.286-2.118
		c0.734-1.419,1.352-2.681,1.742-3.822c0.454-1.098,0.661-2.055,0.833-2.688c0.164-0.641,0.25-0.981,0.25-0.981
		c0.043-0.18,0.086-0.371,0.114-0.555c0.547-3.415-1.782-6.623-5.194-7.166c-3.415-0.543-6.623,1.782-7.166,5.193l-0.082,0.501
		c0,0-0.027,0.171-0.078,0.492c-0.055,0.321-0.07,0.794-0.266,1.422c-0.121,0.622-0.418,1.395-0.75,2.302
		c-0.211,0.454-0.438,0.938-0.676,1.45c-0.286,0.508-0.59,1.047-0.903,1.606c-0.371,0.558-0.754,1.137-1.153,1.739
		c-0.453,0.582-0.879,1.207-1.395,1.825c-1.016,1.234-2.149,2.532-3.446,3.806c-1.262,1.298-2.688,2.568-4.162,3.846
		c-1.493,1.258-3.056,2.509-4.678,3.708c-6.463,4.83-13.622,8.961-19.093,11.77c-2.74,1.399-5.065,2.478-6.678,3.162
		c-0.754,0.309-1.345,0.546-1.751,0.711c-0.449,0.148-0.691,0.23-0.691,0.23l-0.09,0.027c-1.318,0.442-2.122,1.814-1.818,3.201
		C237.097,314.605,238.566,315.547,240.055,315.226z" style="fill: rgb(29, 100, 109);"></path>
	<path class="st0" d="M409.541,173.857c42.199,4.556,43.497-47.714,34.494-68.006c0,0,12.137-9.426,4.204-38.796
		c-7.87-29.155-40.878-29.437-51.969-22.027c-0.082,0.05-0.191,0.086-0.274,0.14c-7.682-19.995-30.21-9.75-35.778-2.798
		c-0.157,0.176-0.348,0.359-0.481,0.535c-9.942-13.486-41.875-37.1-92.195-42.074c-2.938-0.289-5.654-0.305-8.491-0.469
		c-0.977-0.058-1.946-0.121-2.919-0.164c-44.255-1.946-76.408,10.805-104.735,24.407c-22.454,10.778-28.124,25.737-29.82,32.934
		c-0.199,0.844-0.09,1.673,0.238,2.392c-8.05,9.226-16.408,20.546-20.601,31.558c-8.238,21.622-8.878,31.309-9.238,45.322
		c-0.207,8.082,1.294,14.275,2.388,18.8c0.152,0.638,0.336,1.399,0.484,2.064c-3.669,6.123-15.154,21.313-21.578,27.49
		c-9.167,8.816-13.677,21.434-11.766,32.926c1.458,8.773,6.283,16.194,13.81,21.406c-0.222,0.817-0.406,1.681-0.535,2.591
		c-0.794,5.534,0.313,13.235,4.044,19.941c-2.571,6.811-2.258,14.506,0.95,21.067c1.895,3.872,4.662,7.084,8.03,9.425
		c-0.602,3.423-1.012,7.538-0.774,12.262c1.81,35.936,29.633,39.816,41.512,39.816c1.653,0,3.38-0.062,5.13-0.187
		c7.054-0.501,15.213-1.52,23.857-2.595c12.247-1.524,24.916-3.102,33.771-3.102c3.583,0,5.213,0.266,5.748,0.379
		c4.74,1.016,17.33,3.716,28.014,32.922c1.891,5.166,10.805,32.027,0.618,53.661c-11.559,24.544-17.609,52.895-19.672,63.946
		c-1.035,5.546,0.434,11.212,4.033,15.542c3.607,4.345,8.91,6.834,14.553,6.834c4.506,0,8.874-1.618,12.302-4.56
		c1.27-1.09,2.915-2.533,4.919-4.287c14.537-12.731,48.582-42.555,93.34-72.668c28.386-19.101,61.938-21.918,62.27-21.942
		l25.279-1.762l17.925-1.134l-0.121-0.106l0.226-0.015l-32.825-28.414c-11.371-9.87-31.282-30.722-36.26-44.606
		c-13.001-36.267-13.048-42.086-0.492-62.285c0.879-1.407,1.899-3.056,3.013-4.877c9.53-5.874,20.374-14.568,27.088-31.309
		c6.921-17.257,6.166-33.212,4.369-43.556c1.18-5.646,2.052-11.238,2.622-16.768C408.658,173.739,409.084,173.786,409.541,173.857z
		 M98.623,278.154c-1.477-0.793-2.528-2.169-3.095-3.782c-0.214-0.606-0.34-1.227-0.414-1.868c-0.094-0.797-0.059-1.61,0.07-2.418
		c0.07-0.454,0.171-0.891,0.312-1.325c0.129-0.399,0.25-0.798,0.438-1.177c1.493-2.982,4.885-3.77,8.874-3.77
		c1.419,0,2.943,0.144,4.455,0.281c0.387,0.074,0.778,0.106,1.161,0.207c-0.008-0.004-0.106-0.074-0.211-0.148
		c0.102,0.011,0.199,0.007,0.305,0.019c0,0-5.588-4.033-11.481-6.518c-5.897-2.482-6.827-10.86-6.518-13.029
		c0.313-2.173,3.103-3.415,6.518-8.07c3.411-4.654,3.724-3.411-10.238-9.926c-6.971-3.255-9.762-8.441-9.808-13.786
		c0-0.015,0-0.027-0.004-0.043c-0.031-5.346,2.68-10.843,6.71-14.716c8.066-7.757,24.2-28.854,26.682-35.369
		c2.482-6.518-2.794-13.341-2.482-25.443c0.309-12.098,0.622-19.859,8.066-39.406c4.358-11.43,15.275-24.286,23.786-33.153
		c3.478,0.816,6.69,1.836,8.972,3.094c8.511,4.709,15.31,19.644,16.421,26.166c1.11,6.522,4.064,14.114,10.515,25.217
		c6.452,11.102,8.832,7.635,19.14,19.07c10.305,11.434,4.518,22.329,7.991,32.168c3.478,9.84-0.004,7.01,1.634,16.002
		c1.364,7.483,11.578,24.2,14.978,29.617c0.594,1,0.969,1.653,0.966,1.723l0.031-0.145c0.062,0.09,0.121,0.184,0.121,0.184
		l0.336-1.376c4.924-20.156,16.018-38.338,31.938-51.652c2.278-1.903,4.377-3.482,6.12-4.502
		c11.731-6.882,21.883-13.384,39.613-0.813c14.071,9.98,19.827,39.085,11.782,58.631c-11.246,27.303,4.439,39.155,5.186,57.123
		c0.645,15.47,12.974,7.651,15.912,14.794c1.223,2.978,5.924,7.675,10.993,12.146c1.226,9.754,4.861,21,10.378,36.393
		c7.151,19.949,31.738,43.348,39.187,50.12c1.141,1.082,1.871,1.766,2.082,1.997c-1.391,0.106-38.366,3.052-70.898,24.939
		c-49.281,33.157-85.701,65.842-98.178,76.713l-2.001,1.61c-0.126,0.055-0.246,0.145-0.375,0.145c-0.563,0-1.086-0.508-0.966-1.165
		c1.618-8.659,7.358-36.427,18.269-59.6c0.641-1.356,1.02-2.759,1.555-4.134c0.246-0.641,0.493-1.278,0.719-1.923
		c1.09-3.098,1.95-6.205,2.571-9.339c0.023-0.125,0.054-0.25,0.078-0.371c3.994-20.641-1.078-41.176-4.924-51.687
		c-11.676-31.91-27.589-41.395-41.094-44.29c-2.559-0.547-5.795-0.778-9.503-0.778c-16.506,0-42.298,4.56-58.902,5.744
		c-1.352,0.094-2.634,0.141-3.857,0.141c-19.625,0-23.063-11.985-23.61-22.79c-0.469-9.324,2.794-15.205,2.794-18.617
		c0-3.415-2.794-5.584-7.448-6.518c-0.547-0.11-1.047-0.297-1.512-0.535C98.716,278.193,98.666,278.178,98.623,278.154z" style="fill: rgb(29, 100, 109);"></path>
</g>
</svg>
