<svg version="1.1" id="Layer_1" xmlns="http://www.w3.org/2000/svg" xmlns:xlink="http://www.w3.org/1999/xlink" x="0px" y="0px"
	 width="100%" viewBox="0 0 296 296" enable-background="new 0 0 296 296" xml:space="preserve">
<path fill="#FFFFFF" opacity="1.000000" stroke="none" 
	d="
M197.000000,297.000000 
	C131.333344,297.000000 66.166687,297.000000 1.000026,297.000000 
	C1.000017,198.333359 1.000017,99.666725 1.000009,1.000066 
	C99.666618,1.000044 198.333237,1.000044 296.999878,1.000022 
	C296.999939,99.666603 296.999939,198.333206 296.999969,296.999908 
	C263.833344,297.000000 230.666672,297.000000 197.000000,297.000000 
M231.499832,255.999390 
	C238.241730,255.999390 244.983643,255.999390 251.560776,255.999390 
	C251.560776,185.818253 251.560776,116.607887 251.560776,47.000500 
	C249.482697,47.000500 247.837540,47.000496 246.192368,47.000496 
	C182.713364,47.000496 119.234261,47.046249 55.755569,46.903900 
	C51.226086,46.893742 49.884365,48.020489 49.895325,52.684082 
	C50.050003,118.495285 49.998646,184.306961 50.010380,250.118530 
	C50.010696,251.895584 50.157887,253.672592 50.260929,255.999390 
	C110.632797,255.999390 170.566330,255.999390 231.499832,255.999390 
z"/>
<path fill="#DFDFDF" opacity="1.000000" stroke="none" 
	d="
M230.999847,255.999390 
	C170.566330,255.999390 110.632797,255.999390 50.260929,255.999390 
	C50.157887,253.672592 50.010696,251.895584 50.010380,250.118530 
	C49.998646,184.306961 50.050003,118.495285 49.895325,52.684082 
	C49.884365,48.020489 51.226086,46.893742 55.755569,46.903900 
	C119.234261,47.046249 182.713364,47.000496 246.192368,47.000496 
	C247.837540,47.000496 249.482697,47.000500 251.560776,47.000500 
	C251.560776,116.607887 251.560776,185.818253 251.560776,255.999390 
	C244.983643,255.999390 238.241730,255.999390 230.999847,255.999390 
M114.264206,149.617584 
	C113.072395,148.835220 111.880585,148.052856 111.341873,147.699219 
	C109.133286,152.451263 107.203880,156.602631 104.965683,161.418381 
	C105.852516,161.278580 107.888298,161.559082 108.538399,160.739899 
	C110.332085,158.479706 111.502251,155.732986 113.013031,153.235565 
	C113.559464,152.332291 114.372902,151.590530 115.471146,151.297211 
	C120.362610,151.145065 120.907539,146.804810 122.948723,143.187347 
	C116.840897,142.529785 110.847145,142.472214 104.857056,142.594238 
	C103.996712,142.611755 103.154007,143.495346 102.303131,143.978134 
	C103.150131,144.471680 103.983131,145.361130 104.846497,145.391647 
	C109.048347,145.540115 113.258331,145.458755 118.404068,145.458755 
	C116.817726,147.460358 115.931168,148.578995 114.264206,149.617584 
M154.621765,145.460373 
	C156.057312,145.900681 157.475327,146.634323 158.931992,146.721390 
	C162.152832,146.913956 165.393143,146.781311 168.606476,146.781311 
	C168.606476,150.616028 168.606476,153.549683 168.606476,156.988007 
	C164.421082,156.988007 160.467087,156.898148 156.523376,157.059555 
	C155.677170,157.094193 154.868164,158.038055 154.042023,158.563080 
	C154.874115,159.088104 155.693893,160.043243 156.540298,160.067444 
	C161.554016,160.210754 166.573883,160.138138 171.794952,160.138138 
	C171.794952,155.310135 171.794952,149.617996 171.794952,143.021683 
	C165.795609,143.610245 160.208145,144.158401 154.621765,145.460373 
M146.367325,144.064941 
	C145.861877,143.036942 145.356430,142.008926 145.230957,141.753769 
	C138.827362,145.504944 133.068954,148.878189 126.753357,152.577820 
	C130.518082,156.033112 133.550812,151.066940 137.137268,151.712799 
	C137.137268,155.093399 137.137268,158.517624 137.137268,161.941864 
	C137.705887,162.126495 138.274506,162.311127 138.843124,162.495773 
	C139.383469,161.039139 140.407364,159.572647 140.377853,158.127655 
	C140.268143,152.756927 139.910919,147.432510 146.367325,144.064941 
M190.976410,153.601868 
	C187.186295,155.515167 183.396164,157.428467 179.620972,159.334244 
	C181.528244,162.288437 184.355804,162.115128 190.187119,158.495819 
	C197.497299,153.958649 199.787552,150.229858 197.561707,146.596970 
	C195.557007,148.765472 193.541824,150.945312 190.976410,153.601868 
M185.162720,144.421082 
	C183.416855,143.275391 181.598145,140.686020 179.953384,144.753204 
	C180.891006,145.544464 181.775482,146.289444 182.658371,147.036285 
	C183.650116,147.875183 184.640427,148.715759 185.579712,149.511810 
	C189.202820,147.821457 187.681061,146.334320 185.162720,144.421082 
z"/>
<path fill="#246871" opacity="1.000000" stroke="none" 
	d="
M154.621216,145.083466 
	C160.208145,144.158401 165.795609,143.610245 171.794952,143.021683 
	C171.794952,149.617996 171.794952,155.310135 171.794952,160.138138 
	C166.573883,160.138138 161.554016,160.210754 156.540298,160.067444 
	C155.693893,160.043243 154.874115,159.088104 154.042023,158.563080 
	C154.868164,158.038055 155.677170,157.094193 156.523376,157.059555 
	C160.467087,156.898148 164.421082,156.988007 168.606476,156.988007 
	C168.606476,153.549683 168.606476,150.616028 168.606476,146.781311 
	C165.393143,146.781311 162.152832,146.913956 158.931992,146.721390 
	C157.475327,146.634323 156.057312,145.900681 154.621216,145.083466 
z"/>
<path fill="#266971" opacity="1.000000" stroke="none" 
	d="
M146.106659,144.306427 
	C139.910919,147.432510 140.268143,152.756927 140.377853,158.127655 
	C140.407364,159.572647 139.383469,161.039139 138.843124,162.495773 
	C138.274506,162.311127 137.705887,162.126495 137.137268,161.941864 
	C137.137268,158.517624 137.137268,155.093399 137.137268,151.712799 
	C133.550812,151.066940 130.518082,156.033112 126.753357,152.577820 
	C133.068954,148.878189 138.827362,145.504944 145.230957,141.753769 
	C145.356430,142.008926 145.861877,143.036942 146.106659,144.306427 
z"/>
<path fill="#256871" opacity="1.000000" stroke="none" 
	d="
M115.044617,149.697632 
	C115.931168,148.578995 116.817726,147.460358 118.404068,145.458755 
	C113.258331,145.458755 109.048347,145.540115 104.846497,145.391647 
	C103.983131,145.361130 103.150131,144.471680 102.303131,143.978134 
	C103.154007,143.495346 103.996712,142.611755 104.857056,142.594238 
	C110.847145,142.472214 116.840897,142.529785 122.948723,143.187347 
	C120.907539,146.804810 120.362610,151.145065 115.259247,150.856003 
	C115.040337,150.175766 115.039421,149.936707 115.044617,149.697632 
z"/>
<path fill="#306E76" opacity="1.000000" stroke="none" 
	d="
M191.251526,153.363510 
	C193.541824,150.945312 195.557007,148.765472 197.561707,146.596970 
	C199.787552,150.229858 197.497299,153.958649 190.187119,158.495819 
	C184.355804,162.115128 181.528244,162.288437 179.620972,159.334244 
	C183.396164,157.428467 187.186295,155.515167 191.251526,153.363510 
z"/>
<path fill="#2C6C74" opacity="1.000000" stroke="none" 
	d="
M114.654411,149.657608 
	C115.039421,149.936707 115.040337,150.175766 115.055931,150.594940 
	C114.372902,151.590530 113.559464,152.332291 113.013031,153.235565 
	C111.502251,155.732986 110.332085,158.479706 108.538399,160.739899 
	C107.888298,161.559082 105.852516,161.278580 104.965683,161.418381 
	C107.203880,156.602631 109.133286,152.451263 111.341873,147.699219 
	C111.880585,148.052856 113.072395,148.835220 114.654411,149.657608 
z"/>
<path fill="#357179" opacity="1.000000" stroke="none" 
	d="
M185.435745,144.637482 
	C187.681061,146.334320 189.202820,147.821457 185.579712,149.511810 
	C184.640427,148.715759 183.650116,147.875183 182.658371,147.036285 
	C181.775482,146.289444 180.891006,145.544464 179.953384,144.753204 
	C181.598145,140.686020 183.416855,143.275391 185.435745,144.637482 
z"/>
</svg>