<svg width="240" height="88" viewBox="0 0 240 88" fill="none" xmlns="http://www.w3.org/2000/svg">
<g clip-path="url(#clip0_1_12)">
<path d="M92.0166 31.8564C92.0166 28.7288 92.646 25.8094 93.9068 23.094C95.1656 20.3787 96.9192 18.0202 99.1656 16.0184C101.412 14.0166 104.082 12.4389 107.178 11.2874C110.271 10.1358 113.656 9.55908 117.325 9.55908C120.995 9.55908 124.296 10.122 127.391 11.2457C130.485 12.3715 133.171 13.9333 135.443 15.9351C137.715 17.9389 139.483 20.3252 140.743 23.094C142.004 25.8648 142.634 28.923 142.634 32.2686C142.634 35.6142 141.988 38.6744 140.702 41.4432C139.413 44.214 137.648 46.6003 135.401 48.6021C133.155 50.6059 130.457 52.1539 127.308 53.2519C124.157 54.3479 120.747 54.8969 117.078 54.8969C113.408 54.8969 110.121 54.3479 107.053 53.2519C103.985 52.1558 101.343 50.5921 99.124 48.5625C96.9053 46.533 95.1656 44.107 93.9068 41.2807C92.646 38.4564 92.0166 35.3149 92.0166 31.8603V31.8564ZM107.71 32.0209C107.71 33.4479 107.969 34.7501 108.49 35.9294C109.01 37.1106 109.693 38.1373 110.544 39.0153C111.393 39.8933 112.407 40.5791 113.584 41.0726C114.762 41.5661 116.009 41.8139 117.323 41.8139C118.637 41.8139 119.884 41.5661 121.062 41.0726C122.24 40.5791 123.253 39.8933 124.102 39.0153C124.951 38.1393 125.636 37.1106 126.156 35.9294C126.677 34.7501 126.938 33.4757 126.938 32.1041C126.938 30.7326 126.677 29.5394 126.156 28.3602C125.636 27.1809 124.951 26.1522 124.102 25.2742C123.253 24.3982 122.24 23.7104 121.062 23.2169C119.882 22.7234 118.637 22.4757 117.323 22.4757C116.009 22.4757 114.762 22.7234 113.584 23.2169C112.407 23.7104 111.393 24.3982 110.544 25.2742C109.695 26.1522 109.01 27.167 108.49 28.3185C107.969 29.4701 107.71 30.7048 107.71 32.0209Z" fill="black"/>
<path d="M151.178 11.1228H166.05V16.4702C168.077 14.0027 170.131 12.3437 172.213 11.4915C174.295 10.6412 176.732 10.2151 179.527 10.2151C182.486 10.2151 185.017 10.6967 187.127 11.656C189.235 12.6173 191.03 13.9749 192.508 15.729C193.712 17.156 194.535 18.7455 194.974 20.5016C195.412 22.2576 195.632 24.2594 195.632 26.509V53.3331H180.76V32.0228C180.76 29.9378 180.609 28.2511 180.308 26.9628C180.008 25.6745 179.473 24.6459 178.707 23.8769C178.05 23.2189 177.31 22.7531 176.488 22.4776C175.667 22.2041 174.79 22.0654 173.86 22.0654C171.34 22.0654 169.409 22.8205 168.067 24.3288C166.723 25.8391 166.054 27.9895 166.054 30.7881V53.3331H151.182V11.1228H151.178Z" fill="black"/>
<path d="M233.674 21.9842C230.935 20.5591 228.251 19.8456 225.623 19.8456C224.253 19.8456 223.143 20.1211 222.296 20.6681C221.446 21.2171 221.023 21.9584 221.023 22.8899C221.023 23.3834 221.09 23.7818 221.229 24.0831C221.365 24.3843 221.666 24.6737 222.133 24.9472C222.598 25.2227 223.283 25.4685 224.188 25.6885C225.092 25.9085 226.284 26.182 227.762 26.511C231.871 27.3335 234.937 28.8022 236.966 30.913C238.992 33.0258 240.006 35.7272 240.006 39.0173C240.006 41.4849 239.513 43.7067 238.527 45.6827C237.542 47.6588 236.172 49.3177 234.418 50.6615C232.665 52.0072 230.557 53.0478 228.091 53.789C225.627 54.5303 222.915 54.8989 219.956 54.8989C214.258 54.8989 208.643 53.2816 203.111 50.0451L208.534 39.5128C212.696 42.3649 216.641 43.7919 220.366 43.7919C221.735 43.7919 222.858 43.4907 223.734 42.8861C224.609 42.2836 225.049 41.5146 225.049 40.5831C225.049 40.0361 224.979 39.5822 224.843 39.2254C224.706 38.8687 224.417 38.5397 223.98 38.2384C223.541 37.9371 222.897 37.6616 222.048 37.4159C221.199 37.1681 220.089 36.9085 218.721 36.635C214.119 35.7034 210.901 34.318 209.066 32.4807C207.23 30.6434 206.313 28.1065 206.313 24.8699C206.313 22.5114 206.751 20.3847 207.627 18.4939C208.502 16.6011 209.763 14.9977 211.408 13.6797C213.051 12.3636 215.036 11.3488 217.365 10.6353C219.693 9.9238 222.282 9.56506 225.13 9.56506C229.785 9.56506 234.304 10.4708 238.688 12.2804L233.676 21.9901L233.674 21.9842Z" fill="black"/>
<path d="M44.5328 0H0V56.2883H44.5328V0Z" fill="#8FB896"/>
<path d="M44.5328 56.2883H0V88H44.5328V56.2883Z" fill="#514947"/>
<path d="M44.5327 0C66.0668 0 83.5236 4.16216 83.5236 28.1441C83.5236 53.3153 66.0668 56.2883 44.5327 56.2883" fill="#E5E6DC"/>
</g>
<defs>
<clipPath id="clip0_1_12">
<rect width="240" height="88" fill="white"/>
</clipPath>
</defs>
</svg>
