<svg width="160" height="58" viewBox="0 0 160 58" fill="none" xmlns="http://www.w3.org/2000/svg">
<g clip-path="url(#clip0_302_519)">
<path d="M61.3442 20.9962C61.3442 18.9349 61.7638 17.0107 62.6043 15.2211C63.4435 13.4314 64.6126 11.8769 66.1102 10.5575C67.6079 9.23818 69.3878 8.19836 71.4515 7.43939C73.5139 6.68043 75.7702 6.30029 78.2166 6.30029C80.6629 6.30029 82.8638 6.67128 84.9275 7.41196C86.9898 8.15394 88.7804 9.18331 90.2952 10.5027C91.8099 11.8234 92.9882 13.3961 93.8288 15.2211C94.6693 17.0473 95.0889 19.0629 95.0889 21.268C95.0889 23.473 94.6587 25.4899 93.801 27.3148C92.9421 29.1411 91.7651 30.7139 90.2675 32.0332C88.7698 33.3539 86.9714 34.3741 84.8721 35.0978C82.7714 35.8202 80.498 36.1821 78.0516 36.1821C75.6053 36.1821 73.4136 35.8202 71.3684 35.0978C69.3232 34.3754 67.5617 33.3448 66.0825 32.0071C64.6034 30.6694 63.4435 29.0705 62.6043 27.2077C61.7638 25.3462 61.3442 23.2757 61.3442 20.9989V20.9962ZM71.8065 21.1047C71.8065 22.0452 71.9793 22.9034 72.3264 23.6807C72.6734 24.4593 73.1286 25.1359 73.696 25.7146C74.262 26.2933 74.9376 26.7453 75.7227 27.0706C76.5078 27.3958 77.3391 27.5591 78.2152 27.5591C79.0914 27.5591 79.9227 27.3958 80.7077 27.0706C81.4928 26.7453 82.1684 26.2933 82.7345 25.7146C83.3006 25.1372 83.7571 24.4593 84.1041 23.6807C84.4511 22.9034 84.6253 22.0635 84.6253 21.1595C84.6253 20.2556 84.4511 19.4692 84.1041 18.6919C83.7571 17.9147 83.3006 17.2367 82.7345 16.658C82.1684 16.0806 81.4928 15.6273 80.7077 15.302C79.9213 14.9768 79.0914 14.8135 78.2152 14.8135C77.3391 14.8135 76.5078 14.9768 75.7227 15.302C74.9376 15.6273 74.262 16.0806 73.696 16.658C73.1299 17.2367 72.6734 17.9055 72.3264 18.6645C71.9793 19.4234 71.8065 20.2373 71.8065 21.1047Z" fill="white"/>
<path d="M100.785 7.3312H110.7V10.8556C112.051 9.22926 113.421 8.13588 114.809 7.57417C116.197 7.01377 117.821 6.73291 119.684 6.73291C121.657 6.73291 123.344 7.05034 124.751 7.68259C126.156 8.31615 127.353 9.21097 128.339 10.3671C129.141 11.3076 129.69 12.3553 129.983 13.5126C130.274 14.67 130.421 15.9894 130.421 17.4721V35.1516H120.506V21.1062C120.506 19.732 120.406 18.6203 120.205 17.7712C120.005 16.9221 119.649 16.2441 119.138 15.7373C118.7 15.3036 118.206 14.9966 117.659 14.815C117.111 14.6348 116.527 14.5433 115.907 14.5433C114.227 14.5433 112.939 15.041 112.044 16.0351C111.148 17.0305 110.702 18.4479 110.702 20.2924V35.1516H100.788V7.3312H100.785Z" fill="white"/>
<path d="M155.783 14.4895C153.957 13.5503 152.167 13.08 150.415 13.08C149.502 13.08 148.762 13.2616 148.197 13.6221C147.631 13.984 147.349 14.4725 147.349 15.0865C147.349 15.4118 147.393 15.6743 147.486 15.8729C147.577 16.0715 147.777 16.2622 148.089 16.4424C148.399 16.624 148.855 16.786 149.458 16.931C150.061 17.076 150.856 17.2563 151.841 17.4731C154.581 18.0152 156.625 18.9832 157.977 20.3744C159.328 21.7669 160.004 23.5474 160.004 25.7159C160.004 27.3423 159.675 28.8066 159.018 30.109C158.361 31.4114 157.448 32.5048 156.279 33.3905C155.11 34.2774 153.705 34.9633 152.061 35.4518C150.418 35.9404 148.61 36.1833 146.637 36.1833C142.839 36.1833 139.095 35.1174 135.407 32.9842L139.023 26.0425C141.798 27.9223 144.427 28.8628 146.911 28.8628C147.824 28.8628 148.572 28.6642 149.156 28.2658C149.74 27.8687 150.032 27.3619 150.032 26.7479C150.032 26.3874 149.986 26.0882 149.895 25.8531C149.804 25.6179 149.612 25.4011 149.32 25.2025C149.027 25.004 148.598 24.8224 148.032 24.6604C147.466 24.4971 146.726 24.326 145.814 24.1457C142.746 23.5318 140.601 22.6187 139.378 21.4077C138.153 20.1968 137.542 18.5247 137.542 16.3915C137.542 14.837 137.834 13.4353 138.418 12.1891C139.002 10.9416 139.842 9.88478 140.939 9.01609C142.034 8.1487 143.357 7.47988 144.91 7.0096C146.462 6.54064 148.188 6.3042 150.087 6.3042C153.19 6.3042 156.202 6.90118 159.125 8.09384L155.784 14.4934L155.783 14.4895Z" fill="white"/>
<path d="M29.6885 0H0V37.0991H29.6885V0Z" fill="#8FB896"/>
<path d="M29.6885 37.0991H0V58H29.6885V37.0991Z" fill="#514947"/>
<path d="M29.6885 0C44.0445 0 55.6824 2.74324 55.6824 18.5495C55.6824 35.1396 44.0445 37.0991 29.6885 37.0991" fill="#E5E6DC"/>
</g>
<defs>
<clipPath id="clip0_302_519">
<rect width="160" height="58" fill="white"/>
</clipPath>
</defs>
</svg>
