<svg width="1020" height="875" viewBox="0 0 1020 875" fill="none" xmlns="http://www.w3.org/2000/svg">
<g clip-path="url(#clip0_67_178)">
<ellipse cx="668.549" cy="593.712" rx="55.4922" ry="55.4131" fill="white"/>
<path d="M722.693 875C701.547 875 684.355 857.821 684.355 836.69C684.355 815.56 701.433 798.523 722.435 798.38C727.106 798.38 731.289 795.488 733.009 791.136L746.418 757.322C748.051 753.199 747.163 748.503 744.126 745.267C741.862 742.862 739.971 740.114 738.539 737.136C736.619 733.156 732.607 730.636 728.195 730.636C728.166 730.636 653.582 731.352 653.582 731.352C648.882 731.409 644.67 734.33 642.98 738.711C637.163 753.943 622.808 763.764 606.447 763.764C584.842 763.764 567.278 746.212 567.278 724.624C567.278 703.035 584.842 685.483 606.447 685.483C607.392 685.483 608.338 685.512 609.312 685.598C609.599 685.598 609.914 685.627 610.201 685.627C614.556 685.627 618.596 683.136 620.516 679.156L629.857 659.829C632.149 655.076 630.917 649.35 626.819 646C611.289 633.23 602.378 614.39 602.378 594.233C602.378 557.211 632.521 527.09 669.57 527.09C698.252 527.09 723.782 545.3 733.123 572.415C734.728 577.082 739.112 580.146 743.954 580.146C744.298 580.146 744.67 580.146 745.014 580.088L777.966 577.053C783.152 576.567 787.335 572.673 788.223 567.547C793.094 538.743 817.966 517.842 847.335 517.842C880.43 517.842 907.364 544.756 907.364 577.826C907.364 610.897 880.43 637.811 847.335 637.811C822.407 637.811 799.799 622.092 791.06 598.671C789.369 594.147 785.072 591.226 780.315 591.226C779.971 591.226 779.599 591.226 779.255 591.283L746.304 594.319C741.06 594.805 736.791 598.814 736.017 604.025C731.146 636.694 702.579 661.346 669.57 661.346C664.814 661.346 660.057 660.831 655.444 659.858C654.642 659.686 653.839 659.6 653.037 659.6C648.711 659.6 644.67 662.062 642.722 666.071L633.381 685.398C631.318 689.635 632.092 694.703 635.272 698.139C638.453 701.575 640.945 705.526 642.722 709.849C644.47 714.173 648.682 716.979 653.352 716.979C653.381 716.979 727.966 716.263 727.966 716.263C732.407 716.234 736.418 713.629 738.252 709.592C743.553 698.11 755.1 690.666 767.679 690.666C785.53 690.666 800.057 705.182 800.057 723.02C800.057 740.858 786.705 754.258 769.685 755.317C765.243 755.575 761.375 758.41 759.742 762.533L746.332 796.347C744.613 800.699 745.702 805.653 749.112 808.888C756.791 816.161 761.031 826.01 761.031 836.604C761.031 857.735 743.839 874.914 722.693 874.914V875ZM669.57 541.435C640.43 541.435 616.705 565.142 616.705 594.261C616.705 594.748 616.705 595.206 616.762 595.693L616.877 597.898C616.963 599.043 617.049 600.016 617.163 600.961C617.163 601.076 617.192 601.19 617.221 601.305C617.507 603.309 617.851 605.199 618.338 607.117L618.51 607.833C623.438 626.358 637.994 640.703 656.533 645.398L657.221 645.57C658.424 645.856 659.398 646.057 660.344 646.229C661.117 646.372 661.834 646.458 662.579 646.572L663.094 646.63C663.725 646.715 664.269 646.801 664.842 646.83C666.39 646.973 667.908 647.059 669.37 647.059C669.513 647.059 669.799 647.059 669.857 647.059C671.433 647.059 673.037 646.973 674.613 646.83C674.9 646.83 675.158 646.773 675.415 646.715C677.364 646.486 678.825 646.257 680.143 646C680.372 645.942 681.404 645.685 681.633 645.627L682.12 645.513C683.238 645.255 684.183 645.026 685.129 644.711C685.559 644.568 685.988 644.425 686.447 644.253L687.937 643.709C688.596 643.48 689.226 643.251 689.857 642.993C690.458 642.736 691.003 642.478 691.519 642.22L693.094 641.476C693.582 641.247 693.983 641.075 694.355 640.846C695.158 640.416 695.874 639.987 696.59 639.529C696.59 639.529 698.453 638.412 698.567 638.326C699.484 637.725 700.258 637.152 701.031 636.551C701.031 636.551 702.493 635.463 702.607 635.377C703.582 634.575 704.47 633.774 705.358 632.972C705.358 632.972 705.988 632.399 706.074 632.342C707.221 631.254 708.08 630.309 708.911 629.364L709.312 628.935C710.544 627.532 711.318 626.501 712.092 625.47L712.407 625.069C713.496 623.552 714.183 622.464 714.842 621.347C714.842 621.347 715.358 620.488 715.415 620.402C716.046 619.314 716.619 618.169 717.163 617.024C717.163 617.024 717.679 615.964 717.736 615.85C718.223 614.791 718.682 613.617 719.112 612.443L719.484 611.412C719.943 610.038 720.286 608.892 720.602 607.69C720.602 607.69 720.974 606.258 721.003 606.144C721.261 605.056 721.461 603.882 721.662 602.736C721.748 602.164 721.862 601.562 721.92 600.99C722.063 599.959 722.149 598.814 722.235 597.669C722.235 597.411 722.292 596.781 722.292 596.523L722.349 595.607C722.378 595.149 722.407 594.691 722.407 594.261C722.407 590.367 721.92 586.359 721.003 582.322C720.86 581.606 720.688 581.062 720.688 581.005L720.286 579.602C720.143 579.086 720.029 578.599 719.885 578.141C719.742 577.683 719.57 577.282 719.398 576.824L719.112 576.051C718.51 574.419 717.822 572.758 717.049 571.184C717.049 571.184 716.418 569.867 716.361 569.723C715.931 568.922 715.501 568.177 715.072 567.462C715.014 567.376 714.183 565.973 713.983 565.686C713.438 564.856 712.894 564.083 712.349 563.31C711.977 562.823 711.633 562.336 711.261 561.85C710.688 561.105 710.086 560.389 709.484 559.674C709.054 559.187 708.653 558.757 708.252 558.328C707.536 557.555 706.905 556.896 706.275 556.295C705.931 555.951 705.559 555.636 705.186 555.293L704.441 554.634C703.782 554.033 703.295 553.604 702.779 553.174C702.378 552.83 701.891 552.487 701.433 552.172L700.831 551.714C699.828 550.969 698.768 550.254 697.679 549.566L697.421 549.395C696.59 548.879 695.902 548.45 695.215 548.078C694.814 547.848 693.352 547.133 693.352 547.133C692.55 546.732 691.719 546.302 690.831 545.93C690.315 545.701 689.771 545.472 689.226 545.272C688.051 544.813 687.135 544.47 686.218 544.155C685.616 543.954 685.014 543.783 684.413 543.582C683.438 543.296 682.407 543.038 681.404 542.809L680.888 542.695C680.458 542.609 680.029 542.494 679.599 542.408C678.51 542.208 677.335 542.036 676.132 541.893C676.132 541.893 674.814 541.721 674.67 541.693C672.894 541.521 671.261 541.435 669.656 541.435H669.599H669.57Z" fill="#8FB896"/>
<path d="M972.464 517.899C946.247 517.899 924.929 496.597 924.929 470.398C924.929 469.854 924.929 469.31 924.929 468.766C925.1 463.842 922.092 459.346 917.45 457.657L857.335 435.381C856.046 434.894 854.699 434.665 853.353 434.665C850 434.665 846.734 436.126 844.499 438.817C835.846 449.296 823.095 455.309 809.542 455.309C784.556 455.309 764.241 435.009 764.241 410.042C764.241 385.074 784.556 364.746 809.542 364.746C834.527 364.746 854.843 385.046 854.843 410.042V410.986C854.728 415.854 857.737 420.263 862.292 421.981L922.407 444.257C923.697 444.744 925.043 444.973 926.39 444.973C929.8 444.973 933.095 443.455 935.33 440.707C938.883 436.297 943.181 432.575 948.052 429.655C952.292 427.135 954.441 422.182 953.381 417.343L942.98 370.1C941.834 364.831 937.164 361.109 931.777 361.109C931.662 361.109 931.576 361.109 931.461 361.109C930.745 361.109 930.029 361.109 929.312 361.109C887.106 361.109 851.318 330.988 844.212 289.5C843.295 284.089 838.653 280.109 833.152 279.994C833.152 279.994 786.304 279.021 786.218 279.021C780.946 279.021 776.304 282.628 775.072 287.782C766.963 321.454 737.02 344.989 702.264 344.989C660.946 344.989 627.335 311.404 627.335 270.116C627.335 228.828 660.946 195.243 702.264 195.243C711.691 195.243 720.888 196.989 729.685 200.425C731.06 200.969 732.464 201.227 733.868 201.227C737.593 201.227 741.204 199.395 743.381 196.159L773.725 151.035C776.447 146.998 776.304 141.672 773.381 137.778C767.479 129.933 764.241 120.284 764.241 110.606C764.241 85.6389 784.556 65.3386 809.542 65.3386C834.527 65.3386 854.843 85.6389 854.843 110.606C854.843 135.573 834.527 155.874 809.542 155.874C805.645 155.874 801.777 155.358 798.052 154.385C797.078 154.127 796.075 154.013 795.1 154.013C791.347 154.013 787.765 155.874 785.588 159.08L755.272 204.176C752.292 208.643 752.78 214.57 756.476 218.464C766.275 228.771 772.951 241.598 775.759 255.542C776.82 260.811 781.376 264.647 786.762 264.733C786.762 264.733 833.611 265.707 833.668 265.707C839.055 265.707 843.754 261.927 844.871 256.63C853.381 216.545 888.138 188.514 929.341 188.514C976.963 188.514 1015.73 227.225 1015.73 274.812C1015.73 309.371 995.301 340.465 963.668 354.066C958.625 356.242 955.817 361.682 956.992 367.036L967.393 414.193C968.453 419.004 972.493 422.611 977.393 423.127C1001.66 425.646 1019.97 445.975 1019.97 470.37C1019.97 496.568 998.654 517.87 972.436 517.87L972.464 517.899Z" fill="#8FB896"/>
<path d="M186.218 514.034C151.691 514.034 123.582 485.946 123.582 451.444C123.582 444.629 124.67 437.958 126.791 431.602C128.453 426.648 126.562 421.208 122.178 418.345L80.6017 391.316C78.6819 390.085 76.5329 389.455 74.3553 389.455C71.9484 389.455 69.5415 390.2 67.5072 391.717C60.2292 397.129 51.2607 400.106 42.2923 400.106C18.9685 400.106 0 381.152 0 357.845C0 334.539 18.9685 315.584 42.2923 315.584C43.8968 315.584 45.5014 315.67 47.0774 315.842C47.5072 315.899 47.937 315.928 48.3668 315.928C52.6647 315.928 56.6189 313.523 58.596 309.629L78.7679 269.658C81.0315 265.163 80.1146 259.751 76.5043 256.258C66.4756 246.58 60.7163 233.095 60.7163 219.208C60.7163 190.805 83.8395 167.699 112.264 167.699C140.688 167.699 163.811 190.805 163.811 219.208C163.811 247.611 140.688 270.717 112.264 270.717C109.427 270.717 106.533 270.46 103.725 270.002C103.066 269.887 102.436 269.83 101.776 269.83C97.5072 269.83 93.5244 272.206 91.5473 276.129L71.3467 316.157C69.1977 320.423 69.914 325.605 73.1805 329.098C80.5158 337.001 84.5559 347.194 84.5559 357.845C84.5559 361.023 84.212 364.144 83.5243 367.179C82.4642 371.846 84.4126 376.714 88.4527 379.319L130 406.319C131.92 407.551 134.097 408.181 136.246 408.181C139.026 408.181 141.805 407.15 143.983 405.174C155.53 394.638 170.516 388.825 186.218 388.825C188.481 388.825 190.774 388.94 193.037 389.197C193.438 389.255 193.868 389.255 194.269 389.255C198.997 389.255 203.266 386.363 204.986 381.868L219.312 344.159C221.089 339.521 219.656 334.281 215.759 331.16C204.069 321.797 197.364 307.853 197.364 292.907C197.364 265.879 219.37 243.86 246.447 243.86C273.524 243.86 295.501 265.85 295.501 292.907C295.501 319.965 273.496 341.926 246.447 341.926C245.645 341.926 244.842 341.926 244.04 341.868C243.84 341.868 243.639 341.868 243.438 341.868C238.711 341.868 234.413 344.789 232.722 349.256L218.395 386.964C216.533 391.86 218.223 397.358 222.493 400.393C239.026 412.075 248.883 431.172 248.883 451.444C248.883 485.946 220.774 514.034 186.246 514.034H186.218Z" fill="#8FB896"/>
<path d="M481.92 666.243C442.98 666.243 411.318 634.604 411.318 595.693C411.318 593.316 411.433 590.883 411.691 588.477C412.235 583.181 409.054 578.199 404.011 576.481L375.1 566.545C373.868 566.116 372.607 565.915 371.375 565.915C367.822 565.915 364.413 567.547 362.206 570.496C352.894 582.951 338.596 590.081 323.009 590.081C295.96 590.081 273.954 568.091 273.954 541.063C273.954 514.034 295.96 492.016 323.009 492.016C324.355 492.016 325.788 492.073 327.192 492.216C327.536 492.245 327.88 492.273 328.224 492.273C332.808 492.273 336.963 489.553 338.768 485.258L348.453 462.267C350.516 457.371 348.94 451.673 344.642 448.552C326.39 435.324 315.501 413.964 315.501 391.459C315.501 362.713 332.693 337.087 359.312 326.178C364.241 324.145 367.135 319.02 366.275 313.752L358.997 268.885C358.252 264.332 354.871 260.667 350.401 259.579C334.269 255.657 323.009 241.255 323.009 224.591C323.009 204.921 338.997 188.743 358.682 188.543C363.267 188.486 367.393 185.708 369.14 181.442L390.258 130.248C392.292 125.323 390.659 119.625 386.304 116.533C379.943 112.038 374.499 106.483 370.115 100.041C367.937 96.834 364.355 95.0302 360.63 95.0302C359.57 95.0302 358.51 95.1734 357.45 95.4883L308.481 109.661C303.496 111.093 300.115 115.703 300.201 120.885C300.201 152.495 274.642 178.035 243.209 178.035C211.777 178.035 186.218 152.495 186.218 121.086C186.218 89.676 211.777 64.1361 243.209 64.1361C263.009 64.1361 281.089 74.1574 291.547 90.9358C293.668 94.3431 297.393 96.3187 301.261 96.3187C302.321 96.3187 303.381 96.1755 304.441 95.8605L351.118 82.3462C356.418 80.8 359.857 75.7321 359.341 70.2634C359.14 68.2019 359.054 66.1403 359.054 64.1075C359.054 28.7467 387.851 -0.0286731 423.238 -0.0286731C458.625 -0.0286731 487.421 28.7467 487.421 64.1075C487.421 99.4682 458.625 128.244 423.238 128.244C420.716 128.244 418.224 128.1 415.759 127.814C415.301 127.757 414.871 127.728 414.413 127.728C409.828 127.728 405.616 130.477 403.811 134.829L382.35 186.882C380.602 191.12 381.547 196.016 384.785 199.28C391.461 206.066 395.158 215.056 395.158 224.562C395.158 236.76 388.711 248.442 378.309 255.027C374.441 257.489 372.407 262.013 373.123 266.537L380.401 311.461C381.261 316.729 385.616 320.709 390.946 321.053C427.822 323.544 456.734 354.467 456.734 391.431C456.734 430.342 425.072 461.98 386.132 461.98C382.12 461.98 378.109 461.637 374.155 460.978C373.496 460.864 372.865 460.807 372.206 460.807C367.65 460.807 363.467 463.527 361.662 467.821L351.948 490.813C350 495.394 351.261 500.72 355.043 503.955C365.845 513.203 372.034 526.718 372.034 541.034V541.893C371.92 546.875 375.043 551.37 379.771 552.974L408.682 562.909C409.914 563.338 411.175 563.539 412.407 563.539C416.275 563.539 419.971 561.592 422.12 558.185C434.957 537.77 457.88 525.114 481.948 525.114C485.33 525.114 488.768 525.372 492.12 525.859C492.665 525.945 493.238 525.973 493.782 525.973C498.424 525.973 502.722 523.139 504.441 518.701L516.275 488.494C518.023 484.027 516.791 478.931 513.209 475.724C504.097 467.678 499.054 456.483 499.054 444.228C499.054 420.922 518.023 401.967 541.347 401.967C560.831 401.967 577.708 415.167 582.35 434.093C583.496 438.76 587.421 442.196 592.206 442.74L647.536 448.981C647.966 449.039 648.396 449.067 648.825 449.067C653.037 449.067 656.963 446.748 658.969 442.969C661.175 438.817 660.602 433.72 657.536 430.141L551.289 306.737C549.054 304.131 545.874 302.757 542.607 302.757C540.974 302.757 539.312 303.1 537.765 303.816C530.229 307.338 522.149 309.113 513.782 309.113C482.35 309.113 456.791 283.573 456.791 252.164C456.791 220.754 482.35 195.214 513.782 195.214C519.198 195.214 524.527 195.987 529.685 197.505C530.745 197.82 531.834 197.963 532.923 197.963C536.791 197.963 540.516 195.987 542.636 192.58L573.123 143.934C575.989 139.353 575.272 133.426 571.404 129.647C556.734 115.359 548.682 96.1755 548.682 75.589C548.682 33.8718 582.636 -0.0859375 624.384 -0.0859375C666.132 -0.0859375 700.086 33.8432 700.086 75.589C700.086 117.335 666.132 151.235 624.384 151.235C615.587 151.235 606.991 149.746 598.854 146.826C597.593 146.368 596.275 146.139 594.986 146.139C591.118 146.139 587.421 148.086 585.272 151.522L554.814 200.139C552.092 204.491 552.579 210.132 556.046 213.911C565.559 224.362 570.774 237.934 570.774 252.106C570.774 263.302 567.479 274.125 561.289 283.487C558.453 287.754 558.797 293.394 562.149 297.288L670.86 423.527C673.066 426.104 676.275 427.507 679.542 427.507C680.688 427.507 681.863 427.335 683.009 426.963C686.562 425.818 690.229 425.245 693.926 425.245C713.84 425.245 730.029 441.423 730.029 461.322C730.029 481.221 713.84 497.398 693.926 497.398C677.765 497.398 663.868 487.062 659.341 471.715C658.052 467.277 654.212 464.071 649.628 463.555L590.659 456.913C590.229 456.855 589.799 456.827 589.37 456.827C585.072 456.827 581.118 459.232 579.14 463.097C571.977 477.241 557.163 486.375 541.404 486.375C541.404 486.375 540.43 486.375 540.344 486.375C535.645 486.375 531.404 489.267 529.685 493.648L517.851 523.826C515.903 528.779 517.65 534.449 522.034 537.455C541.175 550.568 552.607 572.3 552.607 595.578C552.607 634.489 520.946 666.128 482.006 666.128L481.92 666.243Z" fill="#8FB896"/>
</g>
<defs>
<clipPath id="clip0_67_178">
<rect width="1020" height="875" fill="white"/>
</clipPath>
</defs>
</svg>
