<svg id="_0567_video_call" xmlns="http://www.w3.org/2000/svg" viewBox="0 0 500 500" data-imageid="video-call-2-94" imageName="Video Call 2" class="illustrations_image" style="width: 150px;"><defs><style>.cls-1_video-call-2-94,.cls-2_video-call-2-94{fill:#fff;}.cls-3_video-call-2-94{fill:#f4a28c;}.cls-4_video-call-2-94{fill:#a5a5a5;}.cls-5_video-call-2-94,.cls-6_video-call-2-94{fill:#e6e6e6;}.cls-6_video-call-2-94{opacity:.36;}.cls-7_video-call-2-94{fill:#ce8172;opacity:.31;}.cls-8_video-call-2-94{opacity:.58;}.cls-8_video-call-2-94,.cls-9_video-call-2-94,.cls-10_video-call-2-94{fill:#68e1fd;}.cls-2_video-call-2-94{opacity:.46;}.cls-11_video-call-2-94{fill:#24285b;}.cls-12_video-call-2-94{fill:#000001;opacity:.08;}.cls-9_video-call-2-94{opacity:.73;}.cls-13_video-call-2-94{fill:#ffd200;}</style></defs><rect id="panel_video-call-2-94" class="cls-6_video-call-2-94" x="14.94" y="41.74" width="470.13" height="82.36"/><g id="plant_video-call-2-94"><path class="cls-8_video-call-2-94 targetColor" d="m41.15,429.13s-21.53-5.88-26.21-25.91c0,0,33.35-6.74,34.3,27.68l-8.09-1.77Z" style="fill: rgb(30, 99, 109);"/><path class="cls-9_video-call-2-94 targetColor" d="m43.79,427s-15.04-23.78-1.8-46.01c0,0,25.36,16.11,14.09,46.06l-12.29-.05Z" style="fill: rgb(30, 99, 109);"/><path class="cls-10_video-call-2-94 targetColor" d="m47.66,427.02s7.95-25.11,31.97-29.87c0,0,4.5,16.3-15.55,29.93l-16.41-.07Z" style="fill: rgb(30, 99, 109);"/><polygon class="cls-11_video-call-2-94" points="32.05 426.45 36.41 456.31 63.9 456.42 67.95 426.6 32.05 426.45"/></g><g id="person3_video-call-2-94"><rect class="cls-5_video-call-2-94" x="16.02" y="141.33" width="198.99" height="176.54"/><rect class="cls-5_video-call-2-94" x="16.02" y="290.44" width="198.99" height="27.43"/><circle class="cls-10_video-call-2-94 targetColor" cx="32.68" cy="303.29" r="8.27" style="fill: rgb(30, 99, 109);"/><circle class="cls-13_video-call-2-94" cx="52.64" cy="303.29" r="8.27"/><path class="cls-1_video-call-2-94" d="m56.48,305.38c-.35-.37-.75-.69-1.19-.93-.22-.12-.36-.38-.35-.58l-.12-1.17c-1.17-.4-2.12-.43-3.3-.11l-.2,1.13c0,.25-.15.48-.39.59-.46.21-.88.5-1.25.85-.27.25-.7.24-.95-.03l-1.05-1.12c-.25-.27-.24-.7.03-.95,3.09-2.89,7.97-2.73,10.86.36.25.27.24.7-.03.95l-1.12,1.05c-.27.25-.7.24-.95-.03Z"/><circle class="cls-10_video-call-2-94 targetColor" cx="72.59" cy="303.29" r="8.27" style="fill: rgb(30, 99, 109);"/><rect class="cls-1_video-call-2-94" x="27.55" y="300.35" width="7.02" height="5.9"/><polygon class="cls-1_video-call-2-94" points="37.82 305.65 35.49 304.88 35.49 301.91 37.82 301.14 37.82 305.65"/><rect class="cls-1_video-call-2-94" x="70.19" y="297.58" width="4.8" height="8.44" rx="1.77" ry="1.77"/><rect class="cls-1_video-call-2-94" x="72.08" y="305.23" width="1.02" height="2.84"/><rect class="cls-1_video-call-2-94" x="70.48" y="307.8" width="4.22" height="1.2"/><path class="cls-10_video-call-2-94 targetColor" d="m151.72,189.4s38.09,7.2,61.03-.93c22.94-8.13,7.69-37.72-15.27-53.31l10.04-8.35s61.58,40.55,28.17,86.08c-33.41,45.53-115.21,37.08-83.97-23.49Z" style="fill: rgb(30, 99, 109);"/><path class="cls-2_video-call-2-94" d="m151.72,189.4s38.09,7.2,61.03-.93c22.94-8.13,7.69-37.72-15.27-53.31l10.04-8.35s61.58,40.55,28.17,86.08c-33.41,45.53-115.21,37.08-83.97-23.49Z"/><path class="cls-10_video-call-2-94 targetColor" d="m68.48,290.44h100.24c9.09-21.3,39.28-103.09-33.13-102.86-5.3.01-11.17.47-17.63,1.42-2.44.36-4.97.8-7.59,1.3,0,0-68.68-1.11-62.24,35.51,4.86,27.64,15.44,53.56,20.35,64.62Z" style="fill: rgb(30, 99, 109);"/><path class="cls-12_video-call-2-94" d="m127.37,209.29c-11.47,5.74-13.37-5.74-13.37-5.74-2.02-2.91.59-9.3,3.97-14.55,6.46-.95,12.33-1.41,17.63-1.42.22,7.1-.75,17.97-8.23,21.71Z"/><path class="cls-3_video-call-2-94" d="m111.61,190.58c.47,1.61.91,3.23,1.19,4.89.39,2.27,1.6,5.56,5.29,5.72,5.69.25,5.93-8.74,5.93-8.74,0,0,2.34-8.72-3.83-9-5.55-.26-10.76-.26-8.59,7.13Z"/><path class="cls-3_video-call-2-94" d="m123.73,192.85s-.06-2.71,2.28-2.92,2.13,4.89-2.28,2.92Z"/><path class="cls-3_video-call-2-94" d="m113.28,192.81s.46-2.67-1.83-3.23c-2.28-.56-2.82,4.53,1.83,3.23Z"/><path class="cls-12_video-call-2-94" d="m75.84,290.44h74.3s-76.24-12.7-65.54-33.23c10.7-20.53,0-43.31,0-43.31l-34.85,22.78,5.55,37.4,20.54,16.35Z"/><path class="cls-11_video-call-2-94" d="m111.61,190.58s-9.17-.03-6.08-7.2c3.09-7.18,4.68-2.35,5.86-7.74,1.18-5.39,2.75-6.62,5.84-4.82,3.09,1.8,1.04,6.76,5.07,4.88,4.03-1.88,6.73-3.49,8.02-.11,1.29,3.38.74,5.15-1.82,6.73s2.37,5.67-4.17,8.55c-6.54,2.87-11.14-4.07-11.14-4.07l-1.58,3.79Z"/><path class="cls-10_video-call-2-94 targetColor" d="m41.84,290.44h75.67l-1.04-4.35s-65.31-8.45-57.77-28.98c6.3-17.12,36.16-26.16,24.15-46.87-5.36-9.25-17.41-12.1-26.6-6.63-17.83,10.61-45.51,32.45-38,62.67,3.02,12.15,12.08,19.65,23.59,24.16Z" style="fill: rgb(30, 99, 109);"/><path class="cls-2_video-call-2-94" d="m41.84,290.44h75.67l-1.04-4.35s-65.31-8.45-57.77-28.98c6.3-17.12,36.16-26.16,24.15-46.87-5.36-9.25-17.41-12.1-26.6-6.63-17.83,10.61-45.51,32.45-38,62.67,3.02,12.15,12.08,19.65,23.59,24.16Z"/><path class="cls-3_video-call-2-94" d="m200.02,133.05c-1.05.88-3.53-3.19-3.78-3.77-1.2-2.72-2.17-5.54-2.91-8.43,1.38.54,2.54,1.59,3.22,2.91.21-2.38-.87-4.86-.09-7.13.17-.5.45-.99.89-1.28.36-.24.81-.33,1.24-.34,2.59-.08,4.61,2.24,5.73,4.57.85,1.76,2.01,3.73,2.64,5.55s-.31,2.37-1.61,3.48c-1.75,1.49-3.54,2.95-5.32,4.42Z"/><path class="cls-3_video-call-2-94" d="m131.54,290.44c.55-.52.72-1.1.27-1.77-2.47-3.7-15.34-2.58-15.34-2.58l1.04,4.35h14.02Z"/></g><g id="bg_video-call-2-94"><rect class="cls-4_video-call-2-94" x="251.66" y="410.38" width="49.01" height="47.63"/><rect class="cls-5_video-call-2-94" x="320.49" y="415.62" width="164.57" height="7.48"/><rect class="cls-5_video-call-2-94" x="320.49" y="430.46" width="164.57" height="7.48"/><rect class="cls-5_video-call-2-94" x="320.49" y="445.29" width="134.65" height="7.48"/><rect class="cls-6_video-call-2-94" x="16.02" y="338.31" width="67.25" height="34.88"/></g><g id="person2_video-call-2-94"><rect class="cls-5_video-call-2-94" x="93.65" y="357.22" width="137.16" height="101.04"/><rect class="cls-5_video-call-2-94" x="93.65" y="338.31" width="137.16" height="18.91"/><circle class="cls-10_video-call-2-94 targetColor" cx="105.13" cy="347.77" r="5.7" style="fill: rgb(30, 99, 109);"/><circle class="cls-13_video-call-2-94" cx="118.89" cy="347.77" r="5.7"/><path class="cls-1_video-call-2-94" d="m121.53,349.21c-.24-.26-.52-.47-.82-.64-.15-.08-.25-.26-.24-.4l-.09-.81c-.81-.27-1.46-.3-2.27-.08l-.14.78c0,.17-.11.33-.27.41-.32.15-.61.34-.86.58-.19.17-.48.16-.65-.02l-.72-.77c-.17-.19-.16-.48.02-.65,2.13-2,5.49-1.88,7.49.25.17.19.16.48-.02.65l-.77.72c-.19.17-.48.16-.65-.02Z"/><circle class="cls-10_video-call-2-94 targetColor" cx="132.64" cy="347.77" r="5.7" style="fill: rgb(30, 99, 109);"/><rect class="cls-1_video-call-2-94" x="101.59" y="345.73" width="4.84" height="4.06"/><polygon class="cls-1_video-call-2-94" points="108.68 349.39 107.07 348.86 107.07 346.82 108.68 346.28 108.68 349.39"/><rect class="cls-1_video-call-2-94" x="130.99" y="343.83" width="3.31" height="5.82" rx="1.22" ry="1.22"/><rect class="cls-1_video-call-2-94" x="132.29" y="349.1" width=".7" height="1.96"/><rect class="cls-1_video-call-2-94" x="131.18" y="350.87" width="2.91" height=".83"/><path class="cls-3_video-call-2-94" d="m204.81,389.95s19.08,9.79,25.61,5.31c6.53-4.49,8.41-29.38,8.41-29.38l9.01,1.97s3.44,49.24-11.71,54.35c-15.15,5.1-41.63-7.96-41.63-7.96l10.31-24.28Z"/><path class="cls-10_video-call-2-94 targetColor" d="m152.69,389.92c6.28,12.49,20.06,29.24,49.29,32.33l6.26-31.39s-22.23-14.05-45.76-15.77c-7.88-.58-13.34,7.78-9.79,14.84Z" style="fill: rgb(30, 99, 109);"/><path class="cls-2_video-call-2-94" d="m152.69,389.92c6.28,12.49,20.06,29.24,49.29,32.33l6.26-31.39s-22.23-14.05-45.76-15.77c-7.88-.58-13.34,7.78-9.79,14.84Z"/><path class="cls-3_video-call-2-94" d="m239.26,365.96c-.44-.1-.89-9.62.26-8.74s1.56,2.65,1.56,2.65c0,0,0-6.73,3.47-5.99,3.47.75,4.64,8.51,3.27,13.95l-8.51-1.57"/><path class="cls-3_video-call-2-94" d="m157.82,346.45s.89,6.31.05,10.58c-.34,1.73-2.05,2.88-3.78,2.51-2.15-.46-4.92-1.69-5.8-5.02l-2.2-5.46s-1.26-3.47,2.19-6.24c3.45-2.77,9.19-.25,9.54,3.62Z"/><polygon class="cls-3_video-call-2-94" points="146.48 350.06 144.31 370.83 155.84 371.21 152.79 355.95 146.48 350.06"/><path class="cls-11_video-call-2-94" d="m156.26,346.8c-1.11.12-3.15.22-5.89-.14,0,0,2.14,2.66.31,5.82-1.83,3.16-5.13,2-5.13,2l-.33-8.18c-.17-2.38.96-4.67,2.98-5.96.82-.52,1.74-1.05,2.66-1.48,2.3-1.07,5.83.32,7.86-1.38.89-.75,2.26-.26,2.49.88.5,2.47.27,6.4-3.03,7.94-.6.28-1.26.42-1.92.49Z"/><path class="cls-3_video-call-2-94" d="m151.35,352.26s-.18-2.45-2.01-2.16c-1.83.29-1.59,3.82.92,4.02l1.08-1.86Z"/><path class="cls-3_video-call-2-94" d="m158.18,350.45l1.9,2.36c.47.58.17,1.46-.55,1.63l-2.41.59,1.06-4.58Z"/><path class="cls-7_video-call-2-94" d="m153.6,359.26s-2.15-.32-3.84-2.02c0,0,.37,3.81,4.76,7.35l-.91-5.33Z"/><path class="cls-10_video-call-2-94 targetColor" d="m184.01,458.26c3.91-8.34,12.26-29.55,10.16-54.82-2.72-32.7-38.64-32.55-38.64-32.55l-5.12-.17c-13.68-.45-26.41,7.71-31.06,20.58-8.16,22.6,5.35,54.28,11.59,66.95h53.08Z" style="fill: rgb(30, 99, 109);"/><path class="cls-12_video-call-2-94" d="m130.8,458.26h18.4c-1.37-3.95-2.45-10.88-1.18-22.75,2.52-23.52-4.37-47.8-4.37-47.8-26.22.96-18.26,56.72-16.78,61.69.72,2.43,2.4,5.92,3.92,8.86Z"/><path class="cls-10_video-call-2-94 targetColor" d="m127.07,378.94c-11.11,8.49-25.01,25.14-22.63,54.43l32.01.33s9.68-24.45,7.02-47.89c-.89-7.85-10.12-11.67-16.4-6.87Z" style="fill: rgb(30, 99, 109);"/><path class="cls-2_video-call-2-94" d="m127.07,378.94c-11.11,8.49-25.01,25.14-22.63,54.43l32.01.33s9.68-24.45,7.02-47.89c-.89-7.85-10.12-11.67-16.4-6.87Z"/><path class="cls-3_video-call-2-94" d="m125.54,458.26c.98-8.62,2.82-17.28,6.07-24.62l-24.14-.25s-.21,10.87,1.16,24.86h16.91Z"/></g><g id="person1_video-call-2-94"><rect class="cls-5_video-call-2-94" x="251.66" y="141.33" width="233.41" height="248.97"/><rect class="cls-5_video-call-2-94" x="251.66" y="358.12" width="233.41" height="32.17"/><circle class="cls-10_video-call-2-94 targetColor" cx="271.21" cy="373.19" r="9.7" style="fill: rgb(30, 99, 109);"/><circle class="cls-13_video-call-2-94" cx="294.61" cy="373.19" r="9.7"/><path class="cls-1_video-call-2-94" d="m299.11,375.64c-.41-.44-.88-.8-1.4-1.09-.26-.14-.42-.44-.41-.68l-.15-1.37c-1.37-.47-2.48-.5-3.87-.13l-.23,1.32c0,.3-.18.56-.45.69-.54.25-1.03.58-1.47.99-.32.3-.82.28-1.11-.04l-1.23-1.31c-.3-.32-.28-.82.04-1.11,3.63-3.4,9.34-3.2,12.74.42.3.32.28.82-.04,1.11l-1.31,1.23c-.32.3-.82.28-1.11-.04Z"/><circle class="cls-10_video-call-2-94 targetColor" cx="318.01" cy="373.19" r="9.7" style="fill: rgb(30, 99, 109);"/><rect class="cls-1_video-call-2-94" x="265.18" y="369.74" width="8.23" height="6.91"/><polygon class="cls-1_video-call-2-94" points="277.23 375.96 274.5 375.06 274.5 371.58 277.23 370.67 277.23 375.96"/><rect class="cls-1_video-call-2-94" x="315.2" y="366.49" width="5.63" height="9.9" rx="1.81" ry="1.81"/><rect class="cls-1_video-call-2-94" x="317.41" y="375.46" width="1.2" height="3.34"/><rect class="cls-1_video-call-2-94" x="315.54" y="378.48" width="4.95" height="1.41"/><path class="cls-11_video-call-2-94" d="m366.26,78.88s12.58-10.65,22.46-3.22c9.89,7.43,3.18,37.48,24.71,30.57,0,0-23.39,19.4-39.76-12.29l-7.41-15.07Z"/><path class="cls-10_video-call-2-94 targetColor" d="m376.29,99.48s8.55-1.21,5.02-12.86-13.19-11.22-15.95-8.17l10.94,21.03Z" style="fill: rgb(30, 99, 109);"/><path class="cls-3_video-call-2-94" d="m350.76,93.17s1.05,10.14,4,16.45c1.2,2.56,4.29,3.68,6.83,2.44,3.16-1.53,6.98-4.52,7.08-10.02l1.31-9.32s.62-5.87-5.8-8.84c-6.42-2.97-14.37,3.14-13.42,9.29Z"/><polygon class="cls-3_video-call-2-94" points="372.07 97.91 378.71 130.64 360.41 133 362.87 108.86 372.07 97.91"/><path class="cls-3_video-call-2-94" d="m351.75,99.52l-2.05,4.39c-.51,1.08.29,2.33,1.49,2.32h3.97s-3.4-6.71-3.4-6.71Z"/><path class="cls-7_video-call-2-94" d="m362.8,109.54s3.78-1.16,5.59-3.62c0,0,2.11,7-6.3,10.54l.7-6.91Z"/><path class="cls-3_video-call-2-94" d="m371.39,98.07s-.67-3.87,2.29-4.13c2.95-.26,3.95,5.32.11,6.6l-2.4-2.47Z"/><path class="cls-11_video-call-2-94" d="m352.76,92.3c2.47.2,5.64-.08,9.72-1.13,0,0,3.35,11.01,12.59,12.82,0,0,6.55-17.75-4.57-23.08-9.31-4.46-16.32-8.56-22.74-1.26-4.1,4.67-1.19,12.14,5,12.65Z"/><path class="cls-3_video-call-2-94" d="m337.41,231.37s-.59,70.39-48.25,75.09c-47.42,4.67-75.27-88.62-75.55-89.56-.71-2.4-4.6-4.6-5.98-6.86-1.93-3.16-3-6.85-2.94-10.56,0-.4.03-.81.24-1.15.35-.57,1.14-.73,1.78-.56s1.18.6,1.7,1.02c-.65-2.17-.94-4.44-.88-6.7.13-4.77,3.83-10.1,7.95-4.96,2,2.49,3.14,5.82,4.23,8.78,1.24,3.36,2.28,6.8,3.25,10.25.39,1.39.53,3.46,1.25,4.73,0,0,27.67,48.6,50.73,52.37,23.06,3.77,4.02-72.14,55.9-109.21,51.89-37.07,6.58,77.32,6.58,77.32Z"/><path class="cls-3_video-call-2-94" d="m362.98,97.1s-.06-4.55,3.61-4.26c3.67.29,4.22,5.57-.06,8.16l-3.55-3.9Z"/><path class="cls-10_video-call-2-94 targetColor" d="m378.71,130.64l-18.3,2.37s-99.03,47.53-42.35,114.46c4.75,5.61,7.91,12.39,8.82,19.68l5.14,41.12h74.38s107.42-153.62-27.69-177.63Z" style="fill: rgb(30, 99, 109);"/><path class="cls-12_video-call-2-94" d="m378.17,168.69s-20.81,31.53,7.7,61.38c28.51,29.85,11.98,55.88-20.51,35.43-32.49-20.45-37.76,6.2-37.76,6.2l1.94,16.74,50.59-.56,56.05.21,19.73-46.76-77.73-72.64Z"/><polygon class="cls-11_video-call-2-94" points="438.59 358.12 422.84 288.43 329.54 288.43 318 358.12 438.59 358.12"/><path class="cls-3_video-call-2-94" d="m378.17,168.69c-1.15-21.95,24.35-35.02,42.16-22.13,24.07,17.41,58.21,47.04,48.89,124-11.3,93.33-128.32-3.4-128.32-3.4l4.84-12.31s64.31,40.2,81.58,15c5.32-7.77-1.96-19.5-7.44-28.82-9.89-16.83-40.3-45.51-41.71-72.33Z"/><path class="cls-3_video-call-2-94" d="m345.26,254.9c-.52-4.06-7.68-9.98-10.51-12.38-.88-.75-1.83-1.48-2.95-1.78s-2.44-.11-3.21.76c-.88,1.01-.76,2.53-.54,3.86.75,4.6,1.66,10.76,4.13,14.79.63,1.02,7.92,7.09,8.71,5.35,1.35-2.97,3.67-6.38,4.33-9.55.07-.33.08-.68.03-1.05Z"/><path class="cls-10_video-call-2-94 targetColor" d="m385.87,132.08s2.54-7.9-12.06-9.55c-14.6-1.65-26.26,4.55-21.46,14.88,0,0,11.01,8.76,33.52-5.33Z" style="fill: rgb(30, 99, 109);"/><path class="cls-2_video-call-2-94" d="m385.87,132.08s2.54-7.9-12.06-9.55c-14.6-1.65-26.26,4.55-21.46,14.88,0,0,11.01,8.76,33.52-5.33Z"/><rect class="cls-11_video-call-2-94" x="339.94" y="254.04" width="9.7" height="18.43" transform="translate(447.31 684.77) rotate(-141.03)"/></g></svg>